SplineFontDB: 3.0
FontName: icomoon
FullName: icomoon
FamilyName: icomoon
Weight: Book
Version: 1.0
ItalicAngle: 0
UnderlinePosition: 0
UnderlineWidth: 0
Ascent: 896
Descent: 128
InvalidEm: 0
sfntRevision: 0x00000000
LayerCount: 2
Layer: 0 1 "Back" 1
Layer: 1 1 "Fore" 0
XUID: [1021 429 -1422190009 9407]
StyleMap: 0x0040
FSType: 0
OS2Version: 3
OS2_WeightWidthSlopeOnly: 0
OS2_UseTypoMetrics: 0
CreationTime: 1501234983
ModificationTime: 1501379308
PfmFamily: 81
TTFWeight: 400
TTFWidth: 5
LineGap: 0
VLineGap: 0
Panose: 0 0 0 0 0 0 0 0 0 0
OS2TypoAscent: 896
OS2TypoAOffset: 0
OS2TypoDescent: -128
OS2TypoDOffset: 0
OS2TypoLinegap: 128
OS2WinAscent: 896
OS2WinAOffset: 0
OS2WinDescent: 128
OS2WinDOffset: 0
HheadAscent: 896
HheadAOffset: 0
HheadDescent: -128
HheadDOffset: 0
OS2SubXSize: 665
OS2SubYSize: 716
OS2SubXOff: 0
OS2SubYOff: 143
OS2SupXSize: 665
OS2SupYSize: 716
OS2SupXOff: 0
OS2SupYOff: 491
OS2StrikeYSize: 51
OS2StrikeYPos: 265
OS2Vendor: 'PfEd'
OS2CodePages: 00000001.00000000
OS2UnicodeRanges: 00000001.10000000.00000000.00000000
DEI: 91125
ShortTable: maxp 16
  1
  0
  30
  588
  9
  0
  0
  2
  0
  0
  0
  0
  0
  0
  0
  0
EndShort
LangName: 1033 "" "" "Regular" "icomoon" "" "Version 1.0" "" "" "" "" "Font generated by IcoMoon."
GaspTable: 1 65535 15 1
Encoding: UnicodeBmp
UnicodeInterp: none
NameList: AGL For New Fonts
DisplaySize: -48
AntiAlias: 1
FitToEm: 0
WinInfo: 59664 16 4
BeginChars: 65536 39

StartChar: glyph1
Encoding: 0 -1 1
AltUni2: 000000.ffffffff.0
Width: 0
Flags: W
LayerCount: 2
Fore
SplineSet
0 0 m 1,0,-1
 0 0 l 1,1,-1
 0 0 l 1,2,-1
 0 0 l 1,0,-1
EndSplineSet
Validated: 1
EndChar

StartChar: uni0001
Encoding: 1 1 2
Width: 0
Flags: W
LayerCount: 2
Fore
SplineSet
0 0 m 1,0,-1
 0 0 l 1,1,-1
 0 0 l 1,2,-1
 0 0 l 1,0,-1
EndSplineSet
Validated: 1
EndChar

StartChar: space
Encoding: 32 32 3
Width: 1024
Flags: W
LayerCount: 2
Fore
SplineSet
0 0 m 1,0,-1
 0 0 l 1,1,-1
 0 0 l 1,2,-1
 0 0 l 1,0,-1
EndSplineSet
Validated: 1
EndChar

StartChar: uniE910
Encoding: 59664 59664 4
Width: 1024
Flags: W
LayerCount: 2
Fore
SplineSet
1024 701 m 5,0,1
 964 675 964 675 903 669 c 5,2,3
 971 709 971 709 995 784 c 5,4,5
 933 747 933 747 862 734 c 5,6,7
 800 800 800 800 709 800 c 4,8,9
 622 800 622 800 561 739 c 4,10,11
 499 677 499 677 499 590 c 4,12,13
 499 567 499 567 504 542 c 5,14,15
 375 549 375 549 263 607 c 4,16,17
 150 665 150 665 71 761 c 5,18,19
 43 713 43 713 43 656 c 4,20,21
 43 602 43 602 68 556 c 260,22,23
 93 510 93 510 136 481 c 5,24,25
 86 483 86 483 42 507 c 5,26,-1
 42 505 l 6,27,28
 42 429 42 429 89 372 c 4,29,30
 137 314 137 314 210 299 c 5,31,32
 182 292 182 292 155 292 c 4,33,34
 136 292 136 292 115 295 c 5,35,36
 135 232 135 232 189 192 c 4,37,38
 243 151 243 151 311 149 c 5,39,40
 197 60 197 60 51 60 c 4,41,42
 22 60 22 60 0 62 c 5,43,44
 147 -32 147 -32 322 -32 c 4,45,46
 434 -32 434 -32 532 3 c 4,47,48
 630 39 630 39 699 98 c 4,49,50
 769 158 769 158 819 235 c 4,51,52
 870 312 870 312 894 396 c 4,53,54
 919 481 919 481 919 565 c 6,55,-1
 919 593 l 5,56,57
 980 637 980 637 1024 701 c 5,0,1
859 565 m 2,58,59
 859 496 859 496 840 424 c 0,60,61
 820 351 820 351 777 280 c 0,62,63
 733 209 733 209 672 153 c 256,64,65
 611 97 611 97 520 63 c 0,66,67
 429 28 429 28 322 28 c 0,68,69
 278 28 278 28 234 36 c 1,70,71
 295 61 295 61 348 102 c 0,72,73
 363 114 363 114 368 132 c 0,74,75
 374 150 374 150 368 168 c 0,76,77
 362 187 362 187 347 198 c 256,78,79
 332 209 332 209 312 210 c 0,80,81
 263 211 263 211 224 240 c 1,82,83
 225 240 225 240 225 241 c 0,84,85
 245 246 245 246 258 262 c 0,86,87
 271 279 271 279 271 300 c 0,88,89
 270 321 270 321 257 337 c 0,90,91
 243 354 243 354 222 358 c 0,92,93
 162 370 162 370 128 421 c 1,94,-1
 136 421 l 2,95,96
 156 421 156 421 172 432 c 0,97,98
 188 444 188 444 194 462 c 0,99,100
 200 482 200 482 194 501 c 0,101,102
 187 520 187 520 170 531 c 0,103,104
 110 571 110 571 104 642 c 1,105,106
 186 570 186 570 288 529 c 0,107,108
 391 487 391 487 501 482 c 1,109,-1
 504 482 l 2,110,111
 532 482 532 482 550 503 c 0,112,113
 569 525 569 525 563 554 c 0,114,115
 559 573 559 573 559 590 c 0,116,117
 559 652 559 652 603 696 c 256,118,119
 647 740 647 740 709 740 c 0,120,121
 774 740 774 740 818 692 c 0,122,123
 829 681 829 681 843 676 c 1,124,125
 842 663 842 663 846 650 c 0,126,127
 852 632 852 632 866 621 c 1,128,129
 857 606 857 606 859 589 c 2,130,-1
 859 565 l 2,58,59
EndSplineSet
Validated: 41
EndChar

StartChar: uniE911
Encoding: 59665 59665 5
Width: 1024
Flags: W
LayerCount: 2
Fore
SplineSet
957 829 m 1,0,-1
 957 -61 l 1,1,-1
 700 -61 l 1,2,-1
 700 169 l 1,3,-1
 838 169 l 1,4,-1
 838 409 l 1,5,-1
 698 409 l 1,6,-1
 698 463 l 1,7,-1
 838 463 l 1,8,-1
 838 703 l 1,9,-1
 658 703 l 2,10,11
 574 703 574 703 516 645 c 0,12,13
 458 586 458 586 458 503 c 2,14,-1
 458 409 l 1,15,-1
 319 409 l 1,16,-1
 319 169 l 1,17,-1
 458 169 l 1,18,-1
 458 -61 l 1,19,-1
 64 -61 l 1,20,-1
 64 829 l 1,21,-1
 957 829 l 1,0,-1
1007 879 m 5,22,-1
 17 879 l 5,23,-1
 17 -111 l 5,24,-1
 510 -111 l 5,25,-1
 510 218 l 5,26,-1
 371 218 l 5,27,-1
 371 359 l 5,28,-1
 510 359 l 5,29,-1
 510 503 l 6,30,31
 510 566 510 566 553 610 c 4,32,33
 597 654 597 654 660 654 c 6,34,-1
 791 654 l 5,35,-1
 791 513 l 5,36,-1
 707 513 l 6,37,38
 676 513 676 513 664 500 c 4,39,40
 651 487 651 487 651 456 c 6,41,-1
 651 359 l 5,42,-1
 791 359 l 5,43,-1
 791 218 l 5,44,-1
 653 218 l 5,45,-1
 653 -111 l 5,46,-1
 1009 -111 l 5,47,-1
 1009 879 l 5,48,-1
 1007 879 l 5,22,-1
EndSplineSet
Validated: 9
EndChar

StartChar: uniE920
Encoding: 59680 59680 6
Width: 1024
Flags: W
LayerCount: 2
Fore
SplineSet
513 844 m 1,0,-1
 912 615 l 1,1,-1
 911 155 l 1,2,-1
 511 -76 l 1,3,-1
 112 153 l 1,4,-1
 113 613 l 1,5,-1
 513 844 l 1,0,-1
698 187 m 1,6,-1
 698 581 l 1,7,-1
 661 602 l 1,8,-1
 624 581 l 1,9,-1
 624 422 l 1,10,-1
 400 422 l 1,11,-1
 400 581 l 1,12,-1
 363 603 l 1,13,-1
 326 581 l 1,14,-1
 326 187 l 1,15,-1
 363 165 l 1,16,-1
 400 187 l 1,17,-1
 400 346 l 1,18,-1
 624 346 l 1,19,-1
 624 187 l 1,20,-1
 661 165 l 1,21,-1
 698 187 l 1,6,-1
492.996110258 878.638770116 m 1,22,-1
 92.9961102578 647.638770116 l 1,23,-1
 73.0501663245 636.119987495 l 1,24,-1
 73.0000945176 613.086956316 l 1,25,-1
 72.0000945176 153.086956316 l 1,26,-1
 71.9496151484 129.866446453 l 1,27,-1
 92.0889324748 118.307790644 l 1,28,-1
 491.088932475 -110.692209356 l 1,29,-1
 511.061794022 -122.155330395 l 1,30,-1
 531.003889742 -110.638770116 l 1,31,-1
 931.003889742 120.361229884 l 1,32,-1
 950.949833675 131.880012505 l 1,33,-1
 950.999905482 154.913043684 l 1,34,-1
 951.999905482 614.913043684 l 1,35,-1
 952.050384852 638.133553547 l 1,36,-1
 931.911067525 649.692209356 l 1,37,-1
 532.911067525 878.692209356 l 1,38,-1
 512.938205978 890.155330395 l 1,39,-1
 492.996110258 878.638770116 l 1,22,-1
EndSplineSet
EndChar

StartChar: uniE930
Encoding: 59696 59696 7
Width: 1001
Flags: W
LayerCount: 2
Fore
SplineSet
281 543 m 1,0,1
 254 542 254 542 228 542 c 2,2,-1
 145 542 l 2,3,4
 127 542 127 542 109 536 c 0,5,6
 90 530 90 530 76 518 c 0,7,8
 62 505 62 505 53 486 c 0,9,10
 44 466 44 466 44 440 c 2,11,-1
 44 364 l 1,12,-1
 956 364 l 1,13,-1
 956 405 l 2,14,15
 956 421 956 421 956 435 c 0,16,17
 955 449 955 449 955 453 c 0,18,19
 955 466 955 466 950 482 c 256,20,21
 945 498 945 498 933 511 c 0,22,23
 921 525 921 525 902 534 c 0,24,25
 882 543 882 543 852 543 c 2,26,-1
 719 543 l 1,27,-1
 719 446 l 1,28,-1
 281 446 l 1,29,-1
 281 543 l 1,0,1
955 310 m 1,30,-1
 955 258 l 2,31,32
 955 235 955 235 955 206 c 0,33,34
 956 177 956 177 956 148 c 256,35,36
 956 119 956 119 946 101 c 0,37,38
 935 82 935 82 920 71 c 0,39,40
 904 59 904 59 887 55 c 0,41,42
 869 50 869 50 855 50 c 0,43,44
 841 49 841 49 826 49 c 0,45,46
 810 50 810 50 796 50 c 2,47,-1
 764 50 l 1,48,-1
 719 178 l 1,49,-1
 280 178 l 1,50,-1
 236 50 l 1,51,-1
 173 50 l 2,52,53
 153 50 153 50 128 51 c 0,54,55
 103 51 103 51 87 60 c 0,56,57
 71 70 71 70 62 83 c 0,58,59
 52 97 52 97 48 113 c 256,60,61
 44 129 44 129 44 143 c 2,62,-1
 44 310 l 1,63,-1
 955 310 l 1,30,-1
163 247 m 0,64,65
 151 247 151 247 142 239 c 0,66,67
 133 230 133 230 133 217 c 256,68,69
 133 204 133 204 142 196 c 0,70,71
 151 187 151 187 163 187 c 0,72,73
 176 187 176 187 185 195 c 0,74,75
 194 204 194 204 194 217 c 256,76,77
 194 230 194 230 185 238 c 0,78,79
 176 247 176 247 163 247 c 0,64,65
316 123 m 1,80,81
 308 97 308 97 302 75 c 0,82,83
 297 56 297 56 292 38 c 0,84,85
 286 20 286 20 284 13 c 256,86,87
 282 6 282 6 281 -2 c 256,88,89
 280 -10 280 -10 282 -16 c 0,90,91
 284 -23 284 -23 291 -27 c 0,92,93
 299 -31 299 -31 313 -31 c 2,94,-1
 678 -31 l 2,95,96
 701 -31 701 -31 712 -19 c 256,97,98
 723 -7 723 -7 714 19 c 0,99,100
 709 32 709 32 705 49 c 0,101,102
 700 67 700 67 695 84 c 0,103,104
 690 103 690 103 684 123 c 1,105,-1
 316 123 l 1,80,81
336 498 m 1,106,-1
 336 726 l 2,107,108
 336 737 336 737 338 749 c 0,109,110
 341 761 341 761 348 770 c 0,111,112
 356 780 356 780 369 786 c 256,113,114
 382 792 382 792 403 792 c 2,115,-1
 591 792 l 2,116,117
 622 792 622 792 642 778 c 0,118,119
 663 763 663 763 663 725 c 2,120,-1
 663 498 l 1,121,-1
 336 498 l 1,106,-1
EndSplineSet
Validated: 41
EndChar

StartChar: uniE931
Encoding: 59697 59697 8
Width: 1177
Flags: W
LayerCount: 2
Fore
SplineSet
855 -13 m 1,0,1
 843 -13 843 -13 834 -11 c 1,2,-1
 850 64 l 1,3,4
 865 61 865 61 877 71 c 0,5,6
 896 87 896 87 896 139 c 2,7,-1
 896 412 l 1,8,-1
 969 412 l 1,9,10
 771 632 771 632 638 727 c 0,11,12
 629 730 629 730 606 730 c 0,13,14
 583 729 583 729 575 726 c 0,15,16
 453 633 453 633 234 423 c 1,17,-1
 304 423 l 1,18,-1
 295 115 l 2,19,20
 295 98 295 98 306 86 c 0,21,22
 327 64 327 64 383 65 c 2,23,-1
 667 65 l 2,24,25
 689 65 689 65 702 79 c 0,26,27
 714 91 714 91 713 116 c 2,28,-1
 712 266 l 2,29,30
 712 275 712 275 710 282 c 0,31,32
 707 290 707 290 697 299 c 256,33,34
 687 308 687 308 672 308 c 2,35,-1
 529 308 l 2,36,37
 506 305 506 305 499 298 c 0,38,39
 490 288 490 288 491 264 c 2,40,-1
 491 133 l 1,41,-1
 414 133 l 1,42,-1
 414 263 l 2,43,44
 412 319 412 319 446 353 c 256,45,46
 480 387 480 387 531 385 c 2,47,-1
 672 384 l 2,48,49
 728 384 728 384 757 348 c 0,50,51
 787 311 787 311 789 268 c 2,52,-1
 789 117 l 2,53,54
 791 61 791 61 757 25 c 0,55,56
 724 -9 724 -9 666 -12 c 2,57,-1
 383 -12 l 2,58,59
 293 -14 293 -14 249 36 c 0,60,61
 214 74 214 74 219 120 c 2,62,-1
 226 347 l 1,63,-1
 47 347 l 1,64,-1
 113 412 l 2,65,66
 143 443 143 443 192 490 c 0,67,68
 242 538 242 538 350 636 c 0,69,70
 459 734 459 734 531 788 c 0,71,72
 554 806 554 806 606 806 c 0,73,74
 659 807 659 807 680 791 c 0,75,76
 729 756 729 756 788 703 c 0,77,78
 848 649 848 649 894 603 c 0,79,80
 940 556 940 556 987 505 c 0,81,82
 1035 453 1035 453 1053 432 c 256,83,84
 1071 411 1071 411 1082 398 c 2,85,-1
 1135 335 l 1,86,-1
 973 335 l 1,87,-1
 973 139 l 2,88,89
 973 50 973 50 924 11 c 0,90,91
 895 -13 895 -13 855 -13 c 1,92,-1
 855 -13 l 1,0,1
EndSplineSet
Validated: 37
EndChar

StartChar: uniE932
Encoding: 59698 59698 9
Width: 1024
Flags: W
LayerCount: 2
Fore
SplineSet
834 322 m 1,0,1
 843 332 843 332 843 345 c 0,2,3
 843 359 843 359 832 369 c 2,4,-1
 440 761 l 2,5,6
 361 840 361 840 264 841 c 0,7,8
 170 842 170 842 104 774 c 0,9,10
 63 732 63 732 47 677 c 256,11,12
 31 622 31 622 48 557 c 0,13,14
 65 491 65 491 120 437 c 0,15,16
 150 407 150 407 237 321 c 0,17,18
 324 234 324 234 433 125 c 2,19,-1
 594 -36 l 2,20,21
 630 -72 630 -72 673 -85 c 256,22,23
 716 -98 716 -98 759 -87 c 256,24,25
 802 -76 802 -76 833 -44 c 0,26,27
 865 -12 865 -12 875 30 c 0,28,29
 886 73 886 73 872 116 c 0,30,31
 858 160 858 160 822 196 c 2,32,-1
 369 648 l 2,33,34
 330 687 330 687 286 692 c 0,35,36
 241 698 241 698 211 668 c 0,37,38
 194 650 194 650 189 625 c 0,39,40
 183 599 183 599 193 568 c 0,41,42
 204 537 204 537 232 509 c 2,43,-1
 580 162 l 2,44,45
 590 152 590 152 603 152 c 0,46,47
 617 152 617 152 627 161 c 0,48,49
 637 171 637 171 637 184 c 0,50,51
 636 198 636 198 626 208 c 0,52,53
 620 214 620 214 533 300 c 0,54,55
 446 387 446 387 362 471 c 2,56,-1
 278 555 l 2,57,58
 258 574 258 574 254 593 c 0,59,60
 249 613 249 613 259 620 c 0,61,62
 267 628 267 628 280 626 c 0,63,64
 302 624 302 624 324 601 c 2,65,-1
 777 150 l 2,66,67
 825 101 825 101 812 48 c 0,68,69
 805 22 805 22 786 3 c 0,70,71
 767 -17 767 -17 742 -23 c 0,72,73
 688 -38 688 -38 640 11 c 0,74,75
 279 371 279 371 167 483 c 0,76,77
 125 525 125 525 113 572 c 0,78,79
 100 620 100 620 111 658 c 0,80,81
 123 697 123 697 152 726 c 0,82,83
 181 756 181 756 219 768 c 0,84,85
 258 781 258 781 305 769 c 0,86,87
 353 756 353 756 395 715 c 2,88,-1
 788 323 l 2,89,90
 797 313 797 313 810 313 c 0,91,92
 824 313 824 313 834 322 c 1,93,-1
 834 322 l 1,0,1
EndSplineSet
Validated: 41
EndChar

StartChar: uniE933
Encoding: 59699 59699 10
Width: 1024
Flags: W
LayerCount: 2
Fore
SplineSet
622 340 m 1,0,1
 693 373 693 373 737 439 c 0,2,3
 781 506 781 506 781 587 c 0,4,5
 781 700 781 700 702 779 c 0,6,7
 623 859 623 859 512 859 c 256,8,9
 401 859 401 859 322 780 c 0,10,11
 243 700 243 700 243 587 c 0,12,13
 243 505 243 505 288 438 c 0,14,15
 333 370 333 370 405 338 c 1,16,17
 380 332 380 332 359 324 c 0,18,19
 242 280 242 280 171 175 c 0,20,21
 100 69 100 69 100 -58 c 2,22,-1
 100 -83 l 1,23,-1
 178 -32 l 1,24,-1
 178 1 l 1,25,26
 182 50 182 50 210 102 c 0,27,28
 239 154 239 154 282 196 c 0,29,30
 326 239 326 239 387 266 c 0,31,32
 448 294 448 294 512 294 c 256,33,34
 576 294 576 294 634 268 c 0,35,36
 693 241 693 241 735 199 c 0,37,38
 777 156 777 156 806 105 c 0,39,40
 835 53 835 53 846 1 c 0,41,42
 847 -21 847 -21 846 -32 c 1,43,-1
 924 -83 l 1,44,-1
 924 -65 l 2,45,46
 924 2 924 2 898 69 c 256,47,48
 872 136 872 136 830 189 c 0,49,50
 787 242 787 242 733 281 c 0,51,52
 679 321 679 321 622 340 c 1,53,-1
 622 340 l 1,0,1
329 577 m 1,54,55
 329 655 329 655 382 710 c 0,56,57
 436 765 436 765 512 765 c 256,58,59
 588 765 588 765 641 710 c 0,60,61
 695 655 695 655 695 577 c 256,62,63
 695 499 695 499 642 444 c 0,64,65
 588 389 588 389 512 389 c 256,66,67
 436 389 436 389 383 444 c 0,68,69
 329 499 329 499 329 577 c 1,70,-1
 329 577 l 1,54,55
585 229 m 1,71,72
 575 237 575 237 559 247 c 1,73,-1
 460 247 l 1,74,75
 445 237 445 237 436 229 c 0,76,77
 428 222 428 222 423 214 c 0,78,79
 417 205 417 205 423 198 c 0,80,81
 439 179 439 179 449 164 c 0,82,83
 460 149 460 149 473 141 c 1,84,85
 469 128 469 128 460 105 c 0,86,87
 452 83 452 83 444 58 c 0,88,89
 437 35 437 35 431 12 c 0,90,91
 426 -10 426 -10 426 -21 c 0,92,93
 426 -28 426 -28 435 -38 c 0,94,95
 445 -48 445 -48 458 -58 c 0,96,97
 471 -69 471 -69 485 -76 c 256,98,99
 499 -83 499 -83 509 -83 c 0,100,101
 520 -83 520 -83 536 -76 c 0,102,103
 551 -69 551 -69 565 -60 c 0,104,105
 579 -50 579 -50 588 -40 c 0,106,107
 598 -29 598 -29 598 -22 c 0,108,109
 598 -14 598 -14 592 6 c 0,110,111
 585 27 585 27 578 52 c 0,112,113
 570 76 570 76 562 101 c 0,114,115
 553 125 553 125 546 138 c 1,116,117
 559 145 559 145 571 158 c 0,118,119
 584 172 584 172 600 194 c 0,120,121
 607 203 607 203 601 212 c 0,122,123
 596 221 596 221 585 229 c 1,124,-1
 585 229 l 1,71,72
EndSplineSet
Validated: 37
EndChar

StartChar: uniE934
Encoding: 59700 59700 11
Width: 1024
Flags: W
LayerCount: 2
Fore
SplineSet
172 147 m 1,0,1
 129 147 129 147 99 117 c 256,2,3
 69 87 69 87 69 45 c 0,4,5
 69 2 69 2 99 -28 c 0,6,7
 129 -59 129 -59 171 -59 c 0,8,9
 214 -59 214 -59 244 -29 c 0,10,11
 274 2 274 2 274 44 c 0,12,13
 274 87 274 87 244 117 c 256,14,15
 214 147 214 147 172 147 c 1,16,-1
 172 147 l 1,17,-1
 172 147 l 1,0,1
107 838 m 1,18,19
 90 838 90 838 78 826 c 0,20,21
 65 814 65 814 65 797 c 0,22,23
 65 779 65 779 77 767 c 0,24,25
 90 755 90 755 107 755 c 0,26,27
 264 755 264 755 406 694 c 0,28,29
 549 632 549 632 652 529 c 0,30,31
 756 425 756 425 817 283 c 0,32,33
 878 140 878 140 878 -17 c 0,34,35
 878 -34 878 -34 890 -46 c 0,36,37
 903 -59 903 -59 920 -59 c 0,38,39
 938 -59 938 -59 950 -47 c 0,40,41
 962 -34 962 -34 962 -17 c 0,42,43
 962 99 962 99 932 210 c 0,44,45
 901 321 901 321 846 414 c 0,46,47
 790 508 790 508 711 587 c 256,48,49
 632 666 632 666 539 721 c 0,50,51
 445 777 445 777 334 807 c 0,52,53
 223 838 223 838 107 838 c 1,54,-1
 107 838 l 1,18,19
504 379 m 1,55,56
 428 455 428 455 328 495 c 0,57,58
 224 537 224 537 107 537 c 0,59,60
 89 537 89 537 77 525 c 256,61,62
 65 513 65 513 65 496 c 0,63,64
 65 478 65 478 77 466 c 256,65,66
 89 454 89 454 107 454 c 0,67,68
 241 454 241 454 349 393 c 256,69,70
 457 332 457 332 517 224 c 256,71,72
 577 116 577 116 577 -19 c 0,73,74
 577 -36 577 -36 589 -48 c 0,75,76
 602 -61 602 -61 619 -61 c 0,77,78
 637 -61 637 -61 649 -49 c 0,79,80
 661 -36 661 -36 661 -19 c 0,81,82
 661 99 661 99 620 202 c 0,83,84
 579 303 579 303 504 379 c 1,85,-1
 504 379 l 1,55,56
EndSplineSet
Validated: 5
EndChar

StartChar: uniE935
Encoding: 59701 59701 12
Width: 1025
Flags: W
LayerCount: 2
Fore
SplineSet
712 685 m 1,0,1
 722 685 722 685 729 690 c 0,2,3
 736 696 736 696 736 703 c 2,4,-1
 736 816 l 2,5,6
 736 823 736 823 729 828 c 0,7,8
 722 834 722 834 712 834 c 256,9,10
 702 834 702 834 696 829 c 0,11,12
 689 823 689 823 689 816 c 2,13,-1
 689 703 l 2,14,15
 689 696 689 696 695 691 c 0,16,17
 702 685 702 685 712 685 c 1,18,-1
 712 685 l 1,0,1
312 685 m 1,19,20
 322 685 322 685 328 690 c 0,21,22
 335 696 335 696 335 703 c 2,23,-1
 335 816 l 2,24,25
 335 823 335 823 329 828 c 0,26,27
 322 834 322 834 312 834 c 256,28,29
 302 834 302 834 295 829 c 0,30,31
 288 823 288 823 288 816 c 2,32,-1
 288 703 l 2,33,34
 288 696 288 696 295 691 c 0,35,36
 302 685 302 685 312 685 c 1,37,-1
 312 685 l 1,19,20
453 120 m 2,38,39
 462 110 462 110 475 110 c 0,40,41
 489 110 489 110 498 120 c 2,42,-1
 729 386 l 2,43,44
 738 396 738 396 738 411 c 256,45,46
 738 426 738 426 729 436 c 0,47,48
 719 447 719 447 706 447 c 256,49,50
 693 447 693 447 684 437 c 2,51,-1
 476 197 l 1,52,-1
 368 320 l 2,53,54
 359 331 359 331 346 331 c 256,55,56
 333 331 333 331 324 321 c 0,57,58
 314 310 314 310 314 295 c 256,59,60
 314 280 314 280 323 269 c 2,61,-1
 453 120 l 2,38,39
840 774 m 1,62,-1
 762 774 l 1,63,-1
 762 712 l 2,64,65
 762 694 762 694 748 682 c 0,66,67
 733 669 733 669 713 669 c 0,68,69
 692 669 692 669 678 681 c 0,70,71
 664 694 664 694 664 712 c 2,72,-1
 664 774 l 1,73,-1
 360 774 l 1,74,-1
 360 712 l 2,75,76
 360 694 360 694 346 682 c 0,77,78
 331 669 331 669 311 669 c 256,79,80
 291 669 291 669 277 681 c 0,81,82
 262 694 262 694 262 712 c 2,83,-1
 262 774 l 1,84,-1
 184 774 l 2,85,86
 144 774 144 774 116 750 c 0,87,88
 88 725 88 725 88 691 c 2,89,-1
 88 17 l 2,90,91
 88 -17 88 -17 116 -41 c 0,92,93
 144 -66 144 -66 184 -66 c 2,94,-1
 840 -66 l 2,95,96
 880 -66 880 -66 908 -42 c 0,97,98
 936 -17 936 -17 936 17 c 2,99,-1
 936 691 l 2,100,101
 936 725 936 725 908 749 c 0,102,103
 880 774 880 774 840 774 c 1,104,-1
 840 774 l 1,62,-1
873 30 m 2,105,106
 873 19 873 19 864 11 c 0,107,108
 854 3 854 3 840 3 c 2,109,-1
 184 3 l 2,110,111
 170 3 170 3 161 11 c 0,112,113
 151 19 151 19 151 30 c 2,114,-1
 151 538 l 1,115,-1
 874 538 l 1,116,-1
 873 30 l 2,105,106
EndSplineSet
Validated: 5
EndChar

StartChar: uniE936
Encoding: 59702 59702 13
Width: 1093
Flags: W
LayerCount: 2
Fore
SplineSet
673 96 m 2,0,1
 647 96 647 96 612 87 c 0,2,3
 577 77 577 77 554 63 c 2,4,-1
 334 -65 l 2,5,6
 288 -91 288 -91 261 -73 c 256,7,8
 234 -55 234 -55 242 -2 c 2,9,-1
 251 64 l 2,10,11
 253 77 253 77 245 86 c 0,12,13
 237 96 237 96 224 96 c 2,14,-1
 160 96 l 2,15,16
 107 96 107 96 70 133 c 0,17,18
 32 170 32 170 32 223 c 2,19,-1
 32 736 l 2,20,21
 32 789 32 789 69 826 c 0,22,23
 107 864 107 864 160 864 c 2,24,-1
 928 864 l 2,25,26
 981 864 981 864 1018 827 c 0,27,28
 1056 789 1056 789 1056 736 c 2,29,-1
 1056 223 l 2,30,31
 1056 171 1056 171 1019 134 c 0,32,33
 981 96 981 96 928 96 c 2,34,-1
 673 96 l 2,0,1
256 159 m 2,35,36
 283 159 283 159 299 141 c 0,37,38
 315 122 315 122 310 96 c 2,39,-1
 300 26 l 2,40,41
 296 0 296 0 308 -8 c 0,42,43
 321 -16 321 -16 343 -2 c 2,44,-1
 538 125 l 2,45,46
 561 139 561 139 595 149 c 0,47,48
 630 159 630 159 656 159 c 2,49,-1
 929 159 l 2,50,51
 955 159 955 159 974 178 c 256,52,53
 993 197 993 197 993 223 c 2,54,-1
 993 736 l 2,55,56
 993 762 993 762 974 781 c 256,57,58
 955 800 955 800 929 800 c 2,59,-1
 160 800 l 2,60,61
 134 800 134 800 115 782 c 0,62,63
 96 763 96 763 96 736 c 2,64,-1
 96 223 l 2,65,66
 96 197 96 197 115 178 c 256,67,68
 134 159 134 159 161 159 c 2,69,-1
 256 159 l 2,35,36
288 384 m 256,70,71
 315 384 315 384 333 402 c 0,72,73
 352 421 352 421 352 448 c 256,74,75
 352 475 352 475 334 493 c 0,76,77
 315 512 315 512 288 512 c 256,78,79
 261 512 261 512 243 494 c 0,80,81
 224 475 224 475 224 448 c 256,82,83
 224 421 224 421 242 403 c 0,84,85
 261 384 261 384 288 384 c 256,70,71
544 384 m 256,86,87
 571 384 571 384 589 402 c 0,88,89
 608 421 608 421 608 448 c 256,90,91
 608 475 608 475 590 493 c 0,92,93
 571 512 571 512 544 512 c 256,94,95
 517 512 517 512 499 494 c 0,96,97
 480 475 480 475 480 448 c 256,98,99
 480 421 480 421 498 403 c 0,100,101
 517 384 517 384 544 384 c 256,86,87
800 384 m 256,102,103
 827 384 827 384 845 402 c 0,104,105
 864 421 864 421 864 448 c 256,106,107
 864 475 864 475 846 493 c 0,108,109
 827 512 827 512 800 512 c 256,110,111
 773 512 773 512 755 494 c 0,112,113
 736 475 736 475 736 448 c 256,114,115
 736 421 736 421 754 403 c 0,116,117
 773 384 773 384 800 384 c 256,102,103
EndSplineSet
Validated: 41
EndChar

StartChar: uniE937
Encoding: 59703 59703 14
Width: 1024
Flags: W
LayerCount: 2
Fore
SplineSet
405 729 m 0,0,1
 341 729 341 729 285 697 c 256,2,3
 229 665 229 665 196 610 c 0,4,5
 189 599 189 599 201 592 c 0,6,7
 204 590 204 590 208 590 c 0,8,9
 216 590 216 590 220 596 c 0,10,11
 249 645 249 645 298 673 c 0,12,13
 348 702 348 702 405 702 c 0,14,15
 410 702 410 702 414 706 c 256,16,17
 418 710 418 710 418 715 c 0,18,19
 418 721 418 721 415 725 c 0,20,21
 411 729 411 729 405 729 c 0,0,1
185 552 m 256,22,23
 172 555 172 555 169 542 c 0,24,25
 162 515 162 515 162 495 c 0,26,27
 162 489 162 489 166 485 c 256,28,29
 170 481 170 481 175 481 c 0,30,31
 181 481 181 481 185 485 c 256,32,33
 189 489 189 489 189 495 c 0,34,35
 189 512 189 512 195 536 c 0,36,37
 198 549 198 549 185 552 c 256,22,23
929 88 m 2,38,-1
 709 307 l 2,39,40
 702 314 702 314 693 319 c 1,41,42
 738 397 738 397 738 487 c 256,43,44
 738 577 738 577 694 654 c 0,45,46
 649 731 649 731 572 775 c 0,47,48
 495 820 495 820 405 820 c 256,49,50
 315 820 315 820 238 776 c 0,51,52
 161 731 161 731 117 654 c 0,53,54
 72 577 72 577 72 487 c 0,55,56
 72 396 72 396 116 320 c 0,57,58
 161 243 161 243 238 198 c 256,59,60
 315 153 315 153 405 153 c 0,61,62
 501 153 501 153 583 205 c 1,63,64
 587 198 587 198 594 192 c 2,65,-1
 813 -28 l 2,66,67
 837 -52 837 -52 871 -52 c 256,68,69
 905 -52 905 -52 928 -28 c 0,70,71
 952 -4 952 -4 952 29 c 0,72,73
 952 63 952 63 929 88 c 2,38,-1
405 208 m 256,74,75
 290 208 290 208 208 289 c 0,76,77
 126 371 126 371 126 486 c 0,78,79
 126 602 126 602 208 684 c 256,80,81
 290 766 290 766 405 766 c 256,82,83
 520 766 520 766 602 684 c 256,84,85
 684 602 684 602 684 487 c 0,86,87
 684 371 684 371 602 290 c 0,88,89
 520 208 520 208 405 208 c 256,74,75
890 10 m 0,90,91
 882 3 882 3 871 3 c 0,92,93
 859 3 859 3 852 10 c 2,94,-1
 632 230 l 2,95,96
 631 232 631 232 629 233 c 1,97,-1
 629 233 l 1,98,99
 629 239 629 239 646 255 c 0,100,101
 660 270 660 270 667 271 c 0,102,103
 668 271 668 271 670 269 c 2,104,-1
 890 49 l 2,105,106
 898 41 898 41 898 30 c 0,107,108
 898 18 898 18 890 10 c 0,90,91
EndSplineSet
Validated: 5
EndChar

StartChar: uniE938
Encoding: 59704 59704 15
Width: 1024
Flags: W
LayerCount: 2
Fore
SplineSet
716 486 m 0,0,1
 674 486 674 486 644 516 c 256,2,3
 614 546 614 546 614 588 c 0,4,5
 614 631 614 631 644 661 c 256,6,7
 674 691 674 691 716 691 c 0,8,9
 759 691 759 691 789 661 c 256,10,11
 819 631 819 631 819 589 c 0,12,13
 819 546 819 546 789 516 c 256,14,15
 759 486 759 486 716 486 c 0,0,1
717 623 m 256,16,17
 703 623 703 623 693 613 c 256,18,19
 683 603 683 603 683 589 c 256,20,21
 683 575 683 575 693 565 c 256,22,23
 703 555 703 555 717 555 c 256,24,25
 731 555 731 555 741 565 c 256,26,27
 751 575 751 575 751 589 c 256,28,29
 751 603 751 603 741 613 c 256,30,31
 731 623 731 623 717 623 c 256,16,17
464 -60 m 0,32,33
 410 -60 410 -60 375 -26 c 2,34,-1
 102 247 l 2,35,36
 67 287 67 287 68 336 c 0,37,38
 70 386 70 386 102 418 c 2,39,-1
 410 725 l 2,40,41
 420 736 420 736 435 736 c 0,42,43
 451 737 451 737 462 727 c 0,44,45
 488 701 488 701 457 670 c 2,46,-1
 159 372 l 2,47,48
 136 348 136 348 137 332 c 0,49,50
 138 315 138 315 160 292 c 2,51,-1
 426 27 l 2,52,53
 444 8 444 8 461 8 c 256,54,55
 478 8 478 8 498 29 c 2,56,-1
 853 384 l 2,57,58
 874 404 874 404 880 425 c 0,59,60
 887 447 887 447 887 486 c 2,61,-1
 887 623 l 2,62,63
 887 669 887 669 883 694 c 256,64,65
 879 719 879 719 863 735 c 256,66,67
 847 751 847 751 822 755 c 256,68,69
 797 759 797 759 751 759 c 2,70,-1
 546 759 l 2,71,72
 532 759 532 759 522 769 c 256,73,74
 512 779 512 779 512 793 c 0,75,76
 512 808 512 808 522 818 c 256,77,78
 532 828 532 828 546 828 c 2,79,-1
 751 828 l 2,80,81
 867 828 867 828 911 784 c 0,82,83
 956 739 956 739 956 623 c 2,84,-1
 956 486 l 2,85,86
 956 425 956 425 944 392 c 0,87,88
 931 359 931 359 887 316 c 2,89,-1
 546 -26 l 2,90,91
 512 -60 512 -60 464 -60 c 0,32,33
EndSplineSet
Validated: 33
EndChar

StartChar: uniE939
Encoding: 59705 59705 16
Width: 1024
Flags: W
LayerCount: 2
Fore
SplineSet
710 299 m 2,0,-1
 455 299 l 2,1,2
 444 299 444 299 436 291 c 0,3,4
 427 282 427 282 427 271 c 0,5,6
 427 259 427 259 435 251 c 0,7,8
 444 242 444 242 455 242 c 2,9,-1
 710 242 l 2,10,11
 722 242 722 242 730 250 c 0,12,13
 739 259 739 259 739 270 c 0,14,15
 739 282 739 282 731 290 c 0,16,17
 722 299 722 299 710 299 c 2,0,-1
710 838 m 1,18,-1
 370 838 l 2,19,20
 326 838 326 838 292 803 c 0,21,22
 257 768 257 768 257 724 c 1,23,-1
 224 723 l 2,24,25
 180 723 180 723 148 689 c 0,26,27
 115 655 115 655 115 611 c 2,28,-1
 115 44 l 2,29,30
 115 0 115 0 149 -35 c 0,31,32
 184 -70 184 -70 229 -70 c 2,33,-1
 654 -70 l 2,34,35
 698 -70 698 -70 732 -35 c 0,36,37
 767 0 767 0 767 44 c 1,38,-1
 795 44 l 2,39,40
 840 44 840 44 874 78 c 0,41,42
 909 113 909 113 909 157 c 2,43,-1
 909 610 l 1,44,-1
 710 838 l 1,18,-1
654 -13 m 2,45,-1
 229 -13 l 2,46,47
 206 -13 206 -13 189 4 c 0,48,49
 172 22 172 22 172 44 c 2,50,-1
 172 611 l 2,51,52
 172 633 172 633 188 650 c 256,53,54
 204 667 204 667 226 667 c 2,55,-1
 257 667 l 1,56,-1
 257 157 l 2,57,58
 257 113 257 113 291 79 c 0,59,60
 326 44 326 44 370 44 c 2,61,-1
 710 44 l 1,62,63
 710 22 710 22 693 5 c 0,64,65
 676 -13 676 -13 654 -13 c 2,45,-1
852 157 m 2,66,67
 852 135 852 135 835 118 c 256,68,69
 818 101 818 101 795 101 c 2,70,-1
 370 101 l 2,71,72
 348 101 348 101 331 118 c 256,73,74
 314 135 314 135 314 157 c 2,75,-1
 314 724 l 2,76,77
 314 746 314 746 331 763 c 0,78,79
 348 781 348 781 370 781 c 2,80,-1
 654 781 l 1,81,-1
 654 667 l 2,82,83
 654 622 654 622 688 588 c 256,84,85
 722 554 722 554 767 554 c 2,86,-1
 852 554 l 1,87,-1
 852 157 l 2,66,67
767 611 m 2,88,89
 746 611 746 611 728 640 c 0,90,91
 710 670 710 670 710 695 c 2,92,-1
 710 780 l 1,93,-1
 852 611 l 1,94,-1
 767 611 l 2,88,89
710 440 m 2,95,-1
 455 440 l 2,96,97
 444 440 444 440 436 432 c 0,98,99
 427 424 427 424 427 412 c 256,100,101
 427 400 427 400 435 392 c 0,102,103
 444 384 444 384 455 384 c 2,104,-1
 710 384 l 2,105,106
 722 384 722 384 730 392 c 0,107,108
 739 400 739 400 739 412 c 256,109,110
 739 424 739 424 731 432 c 0,111,112
 722 440 722 440 710 440 c 2,95,-1
EndSplineSet
Validated: 9
EndChar

StartChar: uniE93A
Encoding: 59706 59706 17
Width: 1024
Flags: W
LayerCount: 2
Fore
SplineSet
966 611 m 2,0,-1
 966 6 l 2,1,2
 966 -26 966 -26 944 -48 c 256,3,4
 922 -70 922 -70 890 -70 c 2,5,-1
 134 -70 l 2,6,7
 102 -70 102 -70 80 -48 c 256,8,9
 58 -26 58 -26 58 6 c 2,10,-1
 58 384 l 2,11,12
 58 415 58 415 80 437 c 0,13,14
 102 460 102 460 134 460 c 2,15,-1
 815 460 l 1,16,-1
 815 384 l 1,17,-1
 134 384 l 1,18,-1
 134 6 l 1,19,-1
 890 6 l 1,20,-1
 890 611 l 1,21,-1
 588 611 l 2,22,23
 525 611 525 611 481 655 c 0,24,25
 436 699 436 699 436 762 c 1,26,-1
 436 762 l 1,27,-1
 134 762 l 1,28,-1
 134 535 l 1,29,-1
 58 535 l 1,30,-1
 58 762 l 2,31,32
 58 794 58 794 80 816 c 256,33,34
 102 838 102 838 134 838 c 1,35,-1
 134 838 l 1,36,-1
 436 838 l 2,37,38
 468 838 468 838 490 816 c 256,39,40
 512 794 512 794 512 763 c 0,41,42
 512 731 512 731 534 709 c 256,43,44
 556 687 556 687 588 687 c 1,45,-1
 588 687 l 1,46,-1
 890 687 l 2,47,48
 922 687 922 687 944 665 c 0,49,50
 966 642 966 642 966 611 c 2,0,-1
EndSplineSet
Validated: 5
EndChar

StartChar: uniE93B
Encoding: 59707 59707 18
Width: 1024
Flags: W
LayerCount: 2
Fore
SplineSet
338 54 m 2,0,1
 320 37 320 37 295 37 c 256,2,3
 270 37 270 37 253 54 c 2,4,-1
 167 140 l 2,5,6
 150 157 150 157 150 182 c 256,7,8
 150 207 150 207 167 225 c 2,9,-1
 381 438 l 1,10,11
 347 459 347 459 306 454 c 0,12,13
 264 449 264 449 235 420 c 2,14,-1
 82 267 l 2,15,16
 47 232 47 232 47 182 c 256,17,18
 47 132 47 132 82 97 c 2,19,-1
 210 -31 l 2,20,21
 245 -66 245 -66 295 -66 c 256,22,23
 345 -66 345 -66 380 -31 c 2,24,-1
 533 122 l 2,25,26
 562 151 562 151 567 192 c 0,27,28
 572 234 572 234 551 268 c 1,29,-1
 338 54 l 2,0,1
898 657 m 1,30,-1
 770 785 l 2,31,32
 735 820 735 820 686 820 c 0,33,34
 636 820 636 820 600 785 c 2,35,-1
 448 632 l 2,36,37
 418 603 418 603 414 562 c 0,38,39
 409 521 409 521 429 487 c 1,40,-1
 643 700 l 2,41,42
 660 718 660 718 685 718 c 256,43,44
 710 718 710 718 728 700 c 2,45,-1
 813 615 l 2,46,47
 831 597 831 597 831 572 c 256,48,49
 831 547 831 547 813 530 c 2,50,-1
 600 316 l 1,51,52
 634 296 634 296 675 300 c 0,53,54
 716 305 716 305 746 335 c 2,55,-1
 898 487 l 2,56,57
 933 523 933 523 933 572 c 0,58,59
 933 622 933 622 898 657 c 1,60,-1
 898 657 l 1,61,-1
 898 657 l 1,30,-1
327 235 m 1,62,-1
 348 214 l 2,63,64
 362 201 362 201 380 201 c 0,65,66
 399 201 399 201 412 214 c 2,67,-1
 653 455 l 2,68,69
 667 469 667 469 667 487 c 0,70,71
 667 506 667 506 653 519 c 2,72,-1
 632 540 l 2,73,74
 619 554 619 554 601 554 c 0,75,76
 582 554 582 554 568 540 c 2,77,-1
 327 299 l 2,78,79
 314 286 314 286 314 268 c 0,80,81
 314 249 314 249 327 235 c 1,82,-1
 327 235 l 1,83,-1
 327 235 l 1,62,-1
EndSplineSet
Validated: 37
EndChar

StartChar: uniE93C
Encoding: 59708 59708 19
Width: 1024
Flags: W
LayerCount: 2
Fore
SplineSet
727 66 m 2,0,1
 721 66 721 66 717 70 c 2,2,-1
 627 185 l 1,3,4
 594 146 594 146 551 119 c 1,5,-1
 550 119 l 1,6,7
 543 114 543 114 537 118 c 0,8,9
 527 124 527 124 512 124 c 256,10,11
 497 124 497 124 487 118 c 0,12,13
 481 114 481 114 474 118 c 2,14,-1
 473 119 l 1,15,16
 430 146 430 146 397 185 c 1,17,-1
 307 70 l 2,18,19
 303 65 303 65 296 65 c 0,20,21
 289 66 289 66 286 72 c 2,22,-1
 271 102 l 2,23,24
 227 184 227 184 242 276 c 256,25,26
 257 368 257 368 323 432 c 1,27,28
 328 552 328 552 374 662 c 0,29,30
 421 773 421 773 503 860 c 0,31,32
 506 864 506 864 512 864 c 256,33,34
 518 864 518 864 521 860 c 0,35,36
 603 773 603 773 649 663 c 0,37,38
 696 552 696 552 701 432 c 1,39,40
 767 368 767 368 782 276 c 256,41,42
 797 184 797 184 753 102 c 2,43,-1
 738 72 l 2,44,45
 735 66 735 66 728 66 c 2,46,-1
 727 66 l 2,0,1
627 217 m 1,47,48
 633 217 633 217 637 212 c 2,49,-1
 725 100 l 1,50,-1
 732 113 l 2,51,52
 772 189 772 189 758 274 c 0,53,54
 743 359 743 359 680 417 c 0,55,56
 676 421 676 421 676 426 c 0,57,58
 672 539 672 539 630 644 c 256,59,60
 588 749 588 749 512 834 c 1,61,62
 436 749 436 749 394 644 c 256,63,64
 352 539 352 539 348 426 c 0,65,66
 348 421 348 421 344 417 c 0,67,68
 281 359 281 359 267 274 c 0,69,70
 252 189 252 189 292 113 c 2,71,-1
 299 100 l 1,72,-1
 387 212 l 2,73,74
 391 217 391 217 397 217 c 256,75,76
 403 217 403 217 407 212 c 0,77,78
 438 171 438 171 481 143 c 1,79,80
 512 156 512 156 543 143 c 1,81,82
 586 171 586 171 617 212 c 0,83,84
 621 217 621 217 627 217 c 1,85,-1
 627 217 l 1,47,48
514 -96 m 0,86,87
 508 -96 508 -96 505 -93 c 0,88,89
 501 -89 501 -89 501 -84 c 2,90,-1
 501 68 l 2,91,92
 501 73 501 73 504 76 c 0,93,94
 508 80 508 80 513 80 c 0,95,96
 519 80 519 80 522 77 c 0,97,98
 526 73 526 73 526 68 c 2,99,-1
 526 -84 l 2,100,101
 526 -89 526 -89 523 -92 c 0,102,103
 519 -96 519 -96 514 -96 c 0,86,87
431 -29 m 256,104,105
 426 -29 426 -29 423 -25 c 0,106,107
 419 -21 419 -21 419 -16 c 2,108,-1
 419 85 l 2,109,110
 419 90 419 90 422 93 c 0,111,112
 426 97 426 97 431 97 c 256,113,114
 436 97 436 97 439 94 c 0,115,116
 443 90 443 90 443 85 c 2,117,-1
 443 -16 l 2,118,119
 443 -21 443 -21 440 -25 c 0,120,121
 436 -29 436 -29 431 -29 c 256,104,105
598 -29 m 256,122,123
 593 -29 593 -29 590 -25 c 0,124,125
 586 -21 586 -21 586 -16 c 2,126,-1
 586 85 l 2,127,128
 586 90 586 90 589 93 c 0,129,130
 593 97 593 97 598 97 c 256,131,132
 603 97 603 97 606 94 c 0,133,134
 610 90 610 90 610 85 c 2,135,-1
 610 -16 l 2,136,137
 610 -21 610 -21 607 -25 c 0,138,139
 603 -29 603 -29 598 -29 c 256,122,123
512 430 m 256,140,141
 473 430 473 430 446 457 c 0,142,143
 419 485 419 485 419 523 c 0,144,145
 419 562 419 562 446 589 c 0,146,147
 473 617 473 617 512 617 c 256,148,149
 551 617 551 617 578 590 c 0,150,151
 605 562 605 562 605 524 c 0,152,153
 605 485 605 485 578 458 c 0,154,155
 551 430 551 430 512 430 c 256,140,141
512 592 m 256,156,157
 484 592 484 592 464 572 c 0,158,159
 443 552 443 552 443 524 c 0,160,161
 443 495 443 495 463 475 c 0,162,163
 484 454 484 454 512 454 c 256,164,165
 540 454 540 454 560 474 c 0,166,167
 581 495 581 495 581 523 c 0,168,169
 581 552 581 552 561 572 c 0,170,171
 540 592 540 592 512 592 c 256,156,157
EndSplineSet
Validated: 37
EndChar

StartChar: uniE93D
Encoding: 59709 59709 20
Width: 1024
Flags: W
LayerCount: 2
Fore
SplineSet
360 -56 m 1,0,-1
 360 -55 l 1,1,2
 367 -61 367 -61 375 -61 c 0,3,4
 387 -61 387 -61 396 -54 c 0,5,6
 405 -46 405 -46 405 -34 c 0,7,8
 405 -17 405 -17 393 -8 c 2,9,-1
 266 148 l 2,10,11
 194 235 194 235 201 296 c 0,12,13
 204 328 204 328 226 327 c 0,14,15
 234 327 234 327 243 322 c 0,16,17
 260 313 260 313 270 319 c 0,18,19
 281 326 281 326 286 339 c 2,20,-1
 290 352 l 1,21,-1
 290 733 l 2,22,23
 291 744 291 744 297 750 c 0,24,25
 313 769 313 769 331 770 c 256,26,27
 349 771 349 771 358 764 c 0,28,29
 368 756 368 756 375 746 c 0,30,31
 377 743 377 743 378 740 c 0,32,33
 379 736 379 736 379 734 c 2,34,-1
 379 398 l 2,35,36
 379 387 379 387 388 379 c 256,37,38
 397 371 397 371 409 371 c 0,39,40
 419 371 419 371 427 378 c 0,41,42
 436 385 436 385 438 395 c 2,43,-1
 438 440 l 2,44,45
 438 450 438 450 442 457 c 0,46,47
 456 476 456 476 475 477 c 0,48,49
 495 479 495 479 508 469 c 0,50,51
 522 459 522 459 525 447 c 2,52,-1
 527 436 l 1,53,-1
 527 398 l 2,54,55
 528 395 528 395 529 390 c 256,56,57
 530 385 530 385 537 378 c 0,58,59
 544 370 544 370 556 369 c 0,60,61
 571 368 571 368 579 375 c 0,62,63
 588 383 588 383 588 395 c 2,64,-1
 588 426 l 2,65,66
 588 444 588 444 594 452 c 0,67,68
 604 466 604 466 619 468 c 256,69,70
 634 470 634 470 646 464 c 0,71,72
 659 458 659 458 666 447 c 0,73,74
 671 442 671 442 673 431 c 256,75,76
 675 420 675 420 675 413 c 2,77,-1
 675 398 l 2,78,79
 675 368 675 368 705 367 c 0,80,81
 718 367 718 367 725 374 c 0,82,83
 733 382 733 382 735 389 c 2,84,-1
 736 397 l 1,85,-1
 738 407 l 2,86,87
 739 416 739 416 743 420 c 0,88,89
 756 433 756 433 769 435 c 0,90,91
 782 438 782 438 789 435 c 0,92,93
 797 431 797 431 808 422 c 0,94,95
 816 416 816 416 820 407 c 256,96,97
 824 398 824 398 824 392 c 2,98,-1
 824 165 l 2,99,100
 825 139 825 139 814 113 c 0,101,102
 809 102 809 102 799 88 c 0,103,104
 788 73 788 73 780 64 c 2,105,-1
 771 55 l 1,106,-1
 707 -6 l 2,107,108
 688 -24 688 -24 688 -35 c 0,109,110
 687 -48 687 -48 695 -56 c 0,111,112
 703 -65 703 -65 716 -65 c 0,113,114
 730 -65 730 -65 743 -51 c 2,115,-1
 828 34 l 2,116,117
 856 57 856 57 870 92 c 0,118,119
 883 125 883 125 883 216 c 2,120,-1
 883 378 l 2,121,122
 883 384 883 384 883 393 c 0,123,124
 882 402 882 402 876 422 c 0,125,126
 869 443 869 443 856 454 c 0,127,128
 835 473 835 473 814 482 c 256,129,130
 793 491 793 491 779 491 c 0,131,132
 765 492 765 492 749 487 c 0,133,134
 733 481 733 481 728 478 c 0,135,136
 723 474 723 474 713 468 c 0,137,138
 709 465 709 465 706 470 c 0,139,140
 687 496 687 496 665 507 c 0,141,142
 642 519 642 519 622 516 c 0,143,144
 601 512 601 512 589 507 c 0,145,146
 576 502 576 502 565 494 c 0,147,148
 560 491 560 491 555 496 c 0,149,150
 537 518 537 518 513 524 c 0,151,152
 489 531 489 531 475 528 c 0,153,154
 460 525 460 525 447 518 c 1,155,-1
 440 524 l 1,156,-1
 440 748 l 2,157,158
 437 774 437 774 425 788 c 0,159,160
 395 820 395 820 364 829 c 0,161,162
 332 839 332 839 308 829 c 0,163,164
 283 818 283 818 267 806 c 0,165,166
 250 793 250 793 241 780 c 0,167,168
 236 774 236 774 234 766 c 256,169,170
 232 758 232 758 231 753 c 2,171,-1
 231 401 l 2,172,173
 231 400 231 400 231 397 c 0,174,175
 232 393 232 393 230 390 c 0,176,177
 227 386 227 386 221 388 c 0,178,179
 204 394 204 394 184 386 c 0,180,181
 163 377 163 377 149 346 c 0,182,183
 141 323 141 323 141 298 c 0,184,185
 140 273 140 273 145 252 c 0,186,187
 151 230 151 230 159 210 c 256,188,189
 167 190 167 190 176 175 c 0,190,191
 186 159 186 159 194 148 c 0,192,193
 203 136 203 136 208 130 c 2,194,-1
 214 123 l 1,195,-1
 360 -56 l 1,0,-1
EndSplineSet
Validated: 41
EndChar

StartChar: uniE93E
Encoding: 59710 59710 21
Width: 1024
Flags: W
LayerCount: 2
Fore
SplineSet
87 0 m 1,0,1
 63 0 63 0 49 20 c 0,2,3
 40 33 40 33 40 51 c 2,4,-1
 40 52 l 2,5,6
 42 142 42 142 78 235 c 0,7,8
 113 325 113 325 174 399 c 0,9,10
 238 475 238 475 316 519 c 0,11,12
 387 559 387 559 461 566 c 1,13,-1
 461 673 l 2,14,15
 461 720 461 720 482 744 c 256,16,17
 503 768 503 768 533 768 c 0,18,19
 561 768 561 768 588 747 c 2,20,-1
 938 465 l 2,21,22
 980 431 980 431 980 382 c 0,23,24
 980 332 980 332 938 299 c 2,25,-1
 590 20 l 2,26,27
 565 0 565 0 538 0 c 1,28,-1
 538 0 l 1,29,30
 505 0 505 0 483 26 c 0,31,32
 461 53 461 53 461 93 c 2,33,-1
 461 207 l 1,34,-1
 444 207 l 2,35,36
 234 207 234 207 137 33 c 1,37,-1
 136 32 l 1,38,39
 116 0 116 0 87 0 c 1,40,-1
 87 0 l 1,0,1
444 280 m 2,41,-1
 533 280 l 1,42,-1
 533 93 l 2,43,44
 533 78 533 78 539 72 c 0,45,46
 542 73 542 73 545 76 c 2,47,-1
 893 355 l 2,48,49
 908 367 908 367 908 382 c 256,50,51
 908 397 908 397 893 409 c 2,52,-1
 543 691 l 2,53,54
 539 693 539 693 536 695 c 1,55,56
 533 687 533 687 533 673 c 2,57,-1
 533 495 l 1,58,-1
 491 495 l 2,59,60
 422 495 422 495 354 458 c 0,61,62
 286 420 286 420 230 353 c 0,63,64
 152 258 152 258 124 142 c 1,65,66
 243 280 243 280 444 280 c 2,41,-1
EndSplineSet
Validated: 5
EndChar

StartChar: uniE93F
Encoding: 59711 59711 22
Width: 1024
Flags: W
LayerCount: 2
Fore
SplineSet
937 768 m 0,0,1
 961 768 961 768 975 748 c 0,2,3
 984 735 984 735 984 717 c 2,4,-1
 984 716 l 2,5,6
 982 626 982 626 946 533 c 0,7,8
 911 443 911 443 850 369 c 0,9,10
 786 293 786 293 708 249 c 0,11,12
 637 209 637 209 563 202 c 1,13,-1
 563 95 l 2,14,15
 563 48 563 48 542 24 c 256,16,17
 521 0 521 0 491 0 c 0,18,19
 463 0 463 0 436 21 c 2,20,-1
 86 303 l 2,21,22
 44 337 44 337 44 386 c 0,23,24
 44 436 44 436 86 469 c 2,25,-1
 434 748 l 2,26,27
 459 768 459 768 486 768 c 1,28,-1
 486 768 l 1,29,30
 519 768 519 768 541 742 c 0,31,32
 563 715 563 715 563 675 c 2,33,-1
 563 561 l 1,34,-1
 580 561 l 2,35,36
 790 561 790 561 887 735 c 1,37,-1
 888 736 l 1,38,39
 908 768 908 768 937 768 c 0,0,1
580 488 m 2,40,-1
 491 488 l 1,41,-1
 491 675 l 2,42,43
 491 690 491 690 485 696 c 0,44,45
 482 695 482 695 479 692 c 2,46,-1
 131 413 l 2,47,48
 116 401 116 401 116 386 c 256,49,50
 116 371 116 371 131 359 c 2,51,-1
 481 77 l 2,52,53
 485 75 485 75 488 73 c 1,54,55
 491 81 491 81 491 95 c 2,56,-1
 491 273 l 1,57,-1
 533 273 l 2,58,59
 602 273 602 273 670 310 c 0,60,61
 738 348 738 348 794 415 c 0,62,63
 872 510 872 510 900 626 c 1,64,65
 781 488 781 488 580 488 c 2,40,-1
EndSplineSet
Validated: 5
EndChar

StartChar: uniE940
Encoding: 59712 59712 23
Width: 1024
Flags: W
LayerCount: 2
Fore
SplineSet
782 751 m 0,0,1
 733 716 733 716 689 680 c 0,2,3
 644 643 644 643 590 591 c 0,4,5
 535 538 535 538 479 469 c 256,6,7
 423 400 423 400 371 319 c 0,8,9
 246 126 246 126 212 6 c 0,10,11
 192 -65 192 -65 224 -61 c 0,12,13
 233 -60 233 -60 247 -52 c 1,14,15
 254 -39 254 -39 265 -19 c 0,16,17
 276 2 276 2 309 56 c 256,18,19
 342 110 342 110 373 154 c 0,20,21
 404 199 404 199 443 241 c 0,22,23
 483 284 483 284 515 298 c 0,24,25
 548 313 548 313 617 336 c 0,26,27
 687 360 687 360 729 383 c 0,28,29
 772 406 772 406 803 442 c 1,30,-1
 806 456 l 1,31,32
 802 485 802 485 700 442 c 1,33,-1
 687 447 l 1,34,35
 673 459 673 459 721 483 c 0,36,37
 761 504 761 504 784 516 c 0,38,39
 807 529 807 529 849 554 c 0,40,41
 891 580 891 580 915 603 c 0,42,43
 940 627 940 627 947 648 c 2,44,-1
 952 659 l 1,45,46
 951 675 951 675 885 648 c 0,47,48
 808 616 808 616 803 631 c 0,49,50
 800 641 800 641 844 669 c 0,51,52
 901 704 901 704 942 743 c 256,53,54
 983 782 983 782 988 813 c 0,55,56
 991 833 991 833 967 834 c 0,57,58
 914 837 914 837 808 768 c 0,59,60
 795 760 795 760 782 751 c 0,0,1
392 740 m 256,61,62
 392 757 392 757 380 769 c 0,63,64
 368 782 368 782 351 782 c 2,65,-1
 104 782 l 2,66,67
 87 782 87 782 75 770 c 0,68,69
 63 757 63 757 63 740 c 2,70,-1
 63 391 l 2,71,72
 63 374 63 374 75 362 c 0,73,74
 87 349 87 349 104 349 c 256,75,76
 121 349 121 349 133 361 c 0,77,78
 145 374 145 374 145 391 c 2,79,-1
 145 699 l 1,80,-1
 351 699 l 2,81,82
 368 699 368 699 380 711 c 256,83,84
 392 723 392 723 392 740 c 256,61,62
915 226 m 256,85,86
 898 226 898 226 886 214 c 256,87,88
 874 202 874 202 874 185 c 2,89,-1
 874 20 l 1,90,-1
 545 20 l 2,91,92
 528 20 528 20 516 8 c 256,93,94
 504 -4 504 -4 504 -21 c 256,95,96
 504 -38 504 -38 516 -50 c 256,97,98
 528 -62 528 -62 545 -62 c 2,99,-1
 895 -62 l 2,100,101
 900 -62 900 -62 905 -61 c 0,102,103
 910 -62 910 -62 915 -62 c 0,104,105
 932 -62 932 -62 944 -50 c 256,106,107
 956 -38 956 -38 956 -21 c 2,108,-1
 956 185 l 2,109,110
 956 202 956 202 944 214 c 256,111,112
 932 226 932 226 915 226 c 256,85,86
782 751 m 0,113,114
 733 716 733 716 689 680 c 0,115,116
 644 643 644 643 590 591 c 0,117,118
 535 538 535 538 479 469 c 256,119,120
 423 400 423 400 371 319 c 0,121,122
 246 126 246 126 212 6 c 0,123,124
 192 -65 192 -65 224 -61 c 0,125,126
 233 -60 233 -60 247 -52 c 1,127,128
 254 -39 254 -39 265 -19 c 0,129,130
 276 2 276 2 309 56 c 256,131,132
 342 110 342 110 373 154 c 0,133,134
 404 199 404 199 443 241 c 0,135,136
 483 284 483 284 515 298 c 0,137,138
 548 313 548 313 617 336 c 0,139,140
 687 360 687 360 729 383 c 0,141,142
 772 406 772 406 803 442 c 1,143,-1
 806 456 l 1,144,145
 802 485 802 485 700 442 c 1,146,-1
 687 447 l 1,147,148
 673 459 673 459 721 483 c 0,149,150
 761 504 761 504 784 516 c 0,151,152
 807 529 807 529 849 554 c 0,153,154
 891 580 891 580 915 603 c 0,155,156
 940 627 940 627 947 648 c 2,157,-1
 952 659 l 1,158,159
 951 675 951 675 885 648 c 0,160,161
 808 616 808 616 803 631 c 0,162,163
 800 641 800 641 844 669 c 0,164,165
 901 704 901 704 942 743 c 256,166,167
 983 782 983 782 988 813 c 0,168,169
 991 833 991 833 967 834 c 0,170,171
 914 837 914 837 808 768 c 0,172,173
 795 760 795 760 782 751 c 0,113,114
392 740 m 256,174,175
 392 757 392 757 380 769 c 0,176,177
 368 782 368 782 351 782 c 2,178,-1
 104 782 l 2,179,180
 87 782 87 782 75 770 c 0,181,182
 63 757 63 757 63 740 c 2,183,-1
 63 391 l 2,184,185
 63 374 63 374 75 362 c 0,186,187
 87 349 87 349 104 349 c 256,188,189
 121 349 121 349 133 361 c 0,190,191
 145 374 145 374 145 391 c 2,192,-1
 145 699 l 1,193,-1
 351 699 l 2,194,195
 368 699 368 699 380 711 c 256,196,197
 392 723 392 723 392 740 c 256,174,175
915 226 m 256,198,199
 898 226 898 226 886 214 c 256,200,201
 874 202 874 202 874 185 c 2,202,-1
 874 20 l 1,203,-1
 545 20 l 2,204,205
 528 20 528 20 516 8 c 256,206,207
 504 -4 504 -4 504 -21 c 256,208,209
 504 -38 504 -38 516 -50 c 256,210,211
 528 -62 528 -62 545 -62 c 2,212,-1
 895 -62 l 2,213,214
 900 -62 900 -62 905 -61 c 0,215,216
 910 -62 910 -62 915 -62 c 0,217,218
 932 -62 932 -62 944 -50 c 256,219,220
 956 -38 956 -38 956 -21 c 2,221,-1
 956 185 l 2,222,223
 956 202 956 202 944 214 c 256,224,225
 932 226 932 226 915 226 c 256,198,199
EndSplineSet
Validated: 37
EndChar

StartChar: uniE941
Encoding: 59713 59713 24
Width: 1366
Flags: W
LayerCount: 2
Fore
SplineSet
1230 118 m 1,0,-1
 1230 423 l 1,1,-1
 1364 475 l 1,2,-1
 1270 616 l 1,3,-1
 1353 602 l 1,4,-1
 1354 606 l 1,5,-1
 1360 615 l 1,6,-1
 1205 720 l 1,7,-1
 1203 717 l 1,8,-1
 1204 720 l 1,9,-1
 735 895 l 1,10,-1
 734 892 l 1,11,-1
 733 895 l 1,12,-1
 182 712 l 1,13,-1
 182 713 l 1,14,-1
 180 711 l 1,15,-1
 179 712 l 1,16,-1
 179 711 l 1,17,-1
 0 584 l 1,18,-1
 7 574 l 1,19,-1
 9 570 l 1,20,-1
 106 610 l 1,21,-1
 35 512 l 1,22,-1
 176 433 l 1,23,-1
 176 120 l 1,24,-1
 180 120 l 1,25,-1
 178 117 l 1,26,-1
 617 -128 l 1,27,-1
 633 -128 l 1,28,-1
 1230 118 l 1,0,-1
1319 623 m 1,29,-1
 1258 634 l 1,30,-1
 1220 691 l 1,31,-1
 1319 623 l 1,29,-1
742 875 m 1,32,-1
 1181 712 l 1,33,-1
 742 548 l 1,34,-1
 742 875 l 1,32,-1
1194 700 m 1,35,-1
 1340 483 l 1,36,-1
 734 249 l 1,37,-1
 634 490 l 1,38,-1
 1194 700 l 1,35,-1
64 610 m 1,39,-1
 150 671 l 1,40,-1
 124 635 l 1,41,-1
 64 610 l 1,39,-1
59 517 m 1,42,-1
 134 622 l 1,43,-1
 136 622 l 1,44,-1
 135 624 l 1,45,-1
 184 692 l 1,46,-1
 613 490 l 1,47,-1
 537 249 l 1,48,-1
 59 517 l 1,42,-1
192 127 m 1,49,-1
 192 424 l 1,50,-1
 546 225 l 1,51,-1
 615 444 l 1,52,-1
 617 -110 l 1,53,-1
 192 127 l 1,49,-1
200 702 m 1,54,-1
 727 876 l 1,55,-1
 727 542 l 1,56,-1
 623 503 l 1,57,-1
 200 702 l 1,54,-1
1214 128 m 1,58,-1
 633 -111 l 1,59,-1
 631 455 l 1,60,-1
 725 228 l 1,61,-1
 1214 417 l 1,62,-1
 1214 128 l 1,58,-1
EndSplineSet
Validated: 9
EndChar

StartChar: uniE942
Encoding: 59714 59714 25
Width: 1024
Flags: W
LayerCount: 2
Fore
SplineSet
736 896 m 2,0,-1
 288 896 l 2,1,2
 248 896 248 896 220 868 c 128,-1,3
 192 840 192 840 192 800 c 2,4,-1
 192 -32 l 2,5,6
 192 -72 192 -72 220 -100 c 128,-1,7
 248 -128 248 -128 288 -128 c 2,8,-1
 736 -128 l 2,9,10
 776 -128 776 -128 804 -100 c 128,-1,11
 832 -72 832 -72 832 -32 c 2,12,-1
 832 800 l 2,13,14
 832 840 832 840 804 868 c 128,-1,15
 776 896 776 896 736 896 c 2,0,-1
384 848 m 1,16,-1
 640 848 l 1,17,-1
 640 816 l 1,18,-1
 384 816 l 1,19,-1
 384 848 l 1,16,-1
512 -64 m 256,20,21
 485 -64 485 -64 466.5 -45.5 c 128,-1,22
 448 -27 448 -27 448 0 c 256,23,24
 448 27 448 27 466.5 45.5 c 128,-1,25
 485 64 485 64 512 64 c 256,26,27
 539 64 539 64 557.5 45.5 c 128,-1,28
 576 27 576 27 576 0 c 256,29,30
 576 -27 576 -27 557.5 -45.5 c 128,-1,31
 539 -64 539 -64 512 -64 c 256,20,21
768 128 m 1,32,-1
 256 128 l 1,33,-1
 256 768 l 1,34,-1
 768 768 l 1,35,-1
 768 128 l 1,32,-1
EndSplineSet
Validated: 9
EndChar

StartChar: uniE945
Encoding: 59717 59717 26
Width: 1024
Flags: W
LayerCount: 2
Fore
SplineSet
246 600 m 1,0,-1
 246 593 l 1,1,-1
 246 593 l 1,2,-1
 247 589 l 1,3,-1
 247 580 l 1,4,-1
 247 579 l 1,5,-1
 247 579 l 1,6,-1
 248 577 l 1,7,-1
 248 574 l 2,8,9
 248 573 248 573 249 570 c 2,10,-1
 249 567 l 2,11,12
 249 565 249 565 250 563 c 2,13,-1
 250 561 l 2,14,15
 251 558 251 558 251 555 c 2,16,-1
 251 554 l 1,17,-1
 251 554 l 1,18,-1
 252 553 l 2,19,20
 252 551 252 551 252 551 c 1,21,-1
 253 549 l 1,22,-1
 253 546 l 1,23,-1
 253 545 l 1,24,-1
 253 545 l 1,25,-1
 254 543 l 2,26,27
 254 541 254 541 255 540 c 0,28,29
 255 539 255 539 256 537 c 2,30,-1
 257 534 l 1,31,-1
 257 531 l 2,32,33
 258 529 258 529 259 528 c 2,34,-1
 259 526 l 2,35,36
 260 524 260 524 260 522 c 0,37,38
 261 521 261 521 261 520 c 0,39,40
 264 512 264 512 267 506 c 1,41,-1
 267 506 l 1,42,43
 267 505 267 505 269 501 c 2,44,-1
 269 500 l 2,45,46
 270 499 270 499 270 498 c 2,47,-1
 271 496 l 1,48,-1
 272 495 l 2,49,50
 272 494 272 494 272 493 c 0,51,52
 273 491 273 491 274 490 c 1,53,-1
 274 490 l 1,54,-1
 274 489 l 1,55,-1
 276 485 l 1,56,-1
 277 484 l 1,57,-1
 279 480 l 2,58,59
 314 417 314 417 377 379 c 0,60,61
 441 341 441 341 516 341 c 0,62,63
 530 341 530 341 539 351 c 0,64,65
 549 361 549 361 549 374 c 0,66,67
 549 388 549 388 540 398 c 0,68,69
 530 408 530 408 516 408 c 2,70,-1
 506 408 l 1,71,72
 416 413 416 413 359 481 c 1,73,-1
 359 481 l 1,74,75
 351 491 351 491 344 502 c 1,76,-1
 344 502 l 1,77,78
 344 503 344 503 342 505 c 2,79,-1
 342 506 l 1,80,-1
 340 509 l 2,81,82
 340 510 340 510 339 511 c 256,83,84
 338 512 338 512 338 513 c 1,85,-1
 338 513 l 1,86,87
 333 522 333 522 329 532 c 1,88,-1
 329 532 l 1,89,90
 328 533 328 533 328 534 c 256,91,92
 328 535 328 535 328 535 c 2,93,94
 327 535 327 535 327 536 c 256,95,96
 327 537 327 537 327 538 c 0,97,98
 326 539 326 539 326 539 c 2,99,100
 326 540 326 540 326 540 c 2,101,102
 325 541 325 541 324 543 c 2,103,-1
 324 545 l 1,104,-1
 323 547 l 2,105,106
 323 549 323 549 322 549 c 2,107,-1
 322 552 l 2,108,109
 321 553 321 553 321 553 c 2,110,111
 321 554 321 554 320 556 c 2,112,-1
 320 558 l 1,113,-1
 319 560 l 1,114,-1
 319 563 l 2,115,116
 318 565 318 565 318 567 c 2,117,-1
 317 569 l 1,118,-1
 317 572 l 1,119,-1
 317 572 l 1,120,-1
 316 574 l 1,121,-1
 316 578 l 2,122,123
 315 580 315 580 315 580 c 1,124,-1
 315 585 l 2,125,126
 314 587 314 587 314 588 c 2,127,-1
 314 602 l 2,128,129
 314 603 314 603 314 603 c 1,130,-1
 313 604 l 1,131,-1
 313 614 l 1,132,-1
 313 614 l 1,133,-1
 313 614 l 1,134,-1
 314 616 l 1,135,-1
 314 629 l 1,136,-1
 315 631 l 1,137,-1
 315 636 l 1,138,-1
 316 639 l 1,139,-1
 316 642 l 1,140,-1
 316 642 l 1,141,-1
 316 643 l 2,142,143
 317 644 317 644 317 645 c 2,144,-1
 317 649 l 2,145,146
 318 650 318 650 318 651 c 2,147,-1
 318 654 l 2,148,149
 319 655 319 655 319 656 c 256,150,151
 319 657 319 657 320 658 c 2,152,-1
 320 661 l 1,153,-1
 320 663 l 1,154,-1
 320 663 l 1,155,-1
 322 665 l 1,156,-1
 322 668 l 1,157,-1
 324 672 l 2,158,159
 324 673 324 673 325 675 c 2,160,-1
 325 677 l 1,161,-1
 326 679 l 2,162,163
 326 680 326 680 327 682 c 2,164,-1
 329 686 l 2,165,166
 329 687 329 687 330 688 c 2,167,-1
 331 690 l 2,168,169
 331 691 331 691 331 691 c 2,170,171
 332 692 332 692 332 692 c 2,172,173
 332 693 332 693 332 694 c 2,174,-1
 335 699 l 2,175,176
 335 700 335 700 336 701 c 0,177,178
 336 702 336 702 337 703 c 0,179,180
 337 704 337 704 338 705 c 0,181,182
 338 706 338 706 338 706 c 2,183,184
 339 707 339 707 339 708 c 2,185,-1
 341 710 l 2,186,187
 341 711 341 711 342 712 c 256,188,189
 343 713 343 713 343 714 c 0,190,191
 344 715 344 715 344 716 c 1,192,193
 345 716 345 716 345 716 c 2,194,195
 345 717 345 717 346 718 c 0,196,197
 346 719 346 719 347 720 c 1,198,-1
 347 720 l 1,199,-1
 347 720 l 1,200,-1
 348 722 l 1,201,-1
 350 724 l 1,202,-1
 350 724 l 1,203,-1
 351 726 l 1,204,-1
 353 728 l 1,205,-1
 353 728 l 1,206,-1
 354 729 l 2,207,208
 354 730 354 730 354 730 c 1,209,-1
 357 733 l 1,210,-1
 357 733 l 1,211,-1
 358 735 l 1,212,-1
 362 739 l 1,213,-1
 362 739 l 1,214,-1
 363 740 l 2,215,216
 363 741 363 741 364 742 c 1,217,-1
 364 742 l 1,218,-1
 364 742 l 1,219,-1
 365 743 l 1,220,-1
 366 744 l 1,221,-1
 368 746 l 1,222,-1
 369 748 l 2,223,224
 370 748 370 748 371 749 c 2,225,-1
 380 758 l 1,226,-1
 380 758 l 1,227,-1
 381 759 l 2,228,229
 382 759 382 759 383 761 c 2,230,-1
 385 762 l 1,231,-1
 388 765 l 1,232,-1
 388 765 l 1,233,-1
 389 766 l 2,234,235
 390 766 390 766 390 766 c 1,236,-1
 391 767 l 1,237,-1
 391 767 l 1,238,-1
 392 768 l 2,239,240
 393 768 393 768 394 769 c 0,241,242
 396 771 396 771 396 771 c 2,243,244
 397 771 397 771 397 771 c 1,245,-1
 400 774 l 1,246,-1
 403 775 l 1,247,-1
 403 775 l 1,248,-1
 404 777 l 1,249,-1
 406 778 l 2,250,251
 407 778 407 778 408 779 c 2,252,-1
 410 780 l 1,253,-1
 412 782 l 1,254,-1
 414 782 l 1,255,-1
 414 783 l 1,256,-1
 417 784 l 2,257,258
 418 785 418 785 418 785 c 2,259,260
 419 785 419 785 421 786 c 2,261,-1
 422 787 l 1,262,-1
 422 787 l 1,263,-1
 425 788 l 2,264,265
 426 789 426 789 427 789 c 0,266,267
 428 790 428 790 429 790 c 0,268,269
 431 791 431 791 431 791 c 2,270,271
 432 792 432 792 432 792 c 2,272,273
 433 792 433 792 433 792 c 2,274,275
 434 793 434 793 434 793 c 1,276,-1
 435 793 l 1,277,-1
 435 793 l 1,278,-1
 437 793 l 1,279,-1
 438 794 l 2,280,281
 439 795 439 795 440 795 c 0,282,283
 442 796 442 796 443 796 c 0,284,285
 444 797 444 797 445 797 c 2,286,-1
 446 797 l 1,287,-1
 446 797 l 1,288,-1
 447 798 l 2,289,290
 449 798 449 798 449 799 c 2,291,-1
 450 799 l 1,292,-1
 450 799 l 1,293,-1
 451 799 l 2,294,295
 452 800 452 800 453 800 c 2,296,-1
 454 800 l 1,297,-1
 455 800 l 1,298,-1
 455 800 l 1,299,-1
 457 801 l 1,300,-1
 458 801 l 1,301,-1
 458 802 l 1,302,-1
 461 802 l 1,303,-1
 461 802 l 1,304,-1
 462 802 l 2,305,306
 464 803 464 803 464 803 c 1,307,-1
 465 803 l 1,308,-1
 465 803 l 1,309,-1
 466 804 l 1,310,-1
 467 804 l 1,311,-1
 467 804 l 1,312,-1
 469 804 l 2,313,314
 470 805 470 805 471 805 c 2,315,-1
 473 805 l 1,316,-1
 476 806 l 1,317,-1
 478 806 l 2,318,319
 480 807 480 807 481 807 c 2,320,-1
 482 807 l 2,321,322
 485 807 485 807 485 808 c 2,323,-1
 492 808 l 2,324,325
 493 808 493 808 496 809 c 2,326,-1
 506 809 l 2,327,328
 511 810 511 810 516 810 c 0,329,330
 600 810 600 810 659 751 c 256,331,332
 718 692 718 692 718 609 c 0,333,334
 718 559 718 559 694 515 c 1,335,-1
 694 515 l 1,336,337
 685 497 685 497 665 497 c 0,338,339
 651 497 651 497 641 507 c 256,340,341
 631 517 631 517 631 531 c 0,342,343
 631 539 631 539 635 546 c 0,344,345
 651 575 651 575 651 609 c 2,346,-1
 651 709 l 2,347,348
 651 723 651 723 641 733 c 256,349,350
 631 743 631 743 617 743 c 0,351,352
 595 743 595 743 586 723 c 1,353,354
 554 743 554 743 516 743 c 0,355,356
 460 743 460 743 421 704 c 0,357,358
 381 664 381 664 381 609 c 0,359,360
 381 553 381 553 420 514 c 0,361,362
 460 475 460 475 516 475 c 0,363,364
 545 475 545 475 572 487 c 1,365,366
 584 460 584 460 609 444 c 0,367,368
 634 427 634 427 665 427 c 0,369,370
 694 427 694 427 717 441 c 0,371,372
 740 456 740 456 753 481 c 1,373,-1
 753 481 l 1,374,375
 786 540 786 540 786 609 c 0,376,377
 786 720 786 720 707 798 c 0,378,379
 627 877 627 877 516 877 c 0,380,381
 412 877 412 877 335 808 c 1,382,-1
 335 808 l 1,383,-1
 329 802 l 1,384,-1
 329 802 l 1,385,-1
 326 800 l 1,386,-1
 326 799 l 2,387,388
 325 799 325 799 324 798 c 0,389,390
 323 796 323 796 322 795 c 1,391,-1
 322 795 l 1,392,-1
 321 795 l 2,393,394
 321 794 321 794 319 792 c 0,395,396
 318 791 318 791 318 791 c 2,397,398
 317 791 317 791 317 790 c 0,399,400
 316 789 316 789 314 786 c 2,401,-1
 313 785 l 2,402,403
 311 784 311 784 310 782 c 0,404,405
 309 781 309 781 309 780 c 1,406,407
 308 780 308 780 306 777 c 0,408,409
 305 777 305 777 305 776 c 0,410,411
 304 774 304 774 302 772 c 2,412,-1
 299 769 l 1,413,-1
 299 769 l 1,414,-1
 298 767 l 1,415,-1
 297 765 l 1,416,-1
 294 762 l 2,417,418
 294 761 294 761 293 760 c 0,419,420
 293 759 293 759 292 758 c 2,421,-1
 291 757 l 2,422,423
 290 755 290 755 290 755 c 2,424,425
 289 754 289 754 289 753 c 0,426,427
 288 752 288 752 287 751 c 256,428,429
 286 750 286 750 286 749 c 0,430,431
 285 748 285 748 284 746 c 2,432,-1
 283 744 l 1,433,-1
 283 744 l 1,434,-1
 281 741 l 2,435,436
 279 737 279 737 279 738 c 2,437,-1
 279 737 l 1,438,-1
 279 737 l 1,439,-1
 278 735 l 1,440,-1
 276 733 l 2,441,442
 275 731 275 731 275 729 c 1,443,444
 274 729 274 729 274 728 c 256,445,446
 274 727 274 727 274 727 c 2,447,448
 273 726 273 726 273 725 c 2,449,-1
 272 724 l 2,450,451
 271 723 271 723 271 721 c 0,452,453
 270 719 270 719 269 718 c 0,454,455
 269 717 269 717 268 715 c 0,456,457
 267 714 267 714 267 712 c 0,458,459
 266 710 266 710 265 709 c 2,460,-1
 264 706 l 2,461,462
 263 704 263 704 263 703 c 256,463,464
 263 702 263 702 262 700 c 0,465,466
 262 699 262 699 261 697 c 0,467,468
 261 696 261 696 261 695 c 2,469,-1
 260 694 l 2,470,471
 259 693 259 693 259 691 c 2,472,-1
 258 688 l 2,473,474
 258 687 258 687 257 685 c 0,475,476
 256 682 256 682 256 681 c 256,477,478
 256 680 256 680 255 678 c 0,479,480
 255 677 255 677 254 675 c 0,481,482
 254 673 254 673 253 672 c 2,483,-1
 253 669 l 2,484,485
 252 668 252 668 252 665 c 2,486,-1
 252 664 l 1,487,-1
 252 664 l 1,488,-1
 251 662 l 1,489,-1
 251 659 l 1,490,-1
 250 656 l 2,491,492
 250 654 250 654 249 652 c 2,493,-1
 249 648 l 1,494,-1
 249 648 l 1,495,-1
 249 646 l 2,496,497
 248 644 248 644 248 644 c 1,498,-1
 248 639 l 2,499,500
 248 638 248 638 248 637 c 2,501,-1
 247 636 l 1,502,-1
 247 628 l 2,503,504
 246 626 246 626 246 625 c 2,505,-1
 246 600 l 1,0,-1
516 542 m 1,506,507
 488 542 488 542 468 561 c 0,508,509
 448 581 448 581 448 609 c 256,510,511
 448 637 448 637 468 656 c 0,512,513
 488 676 488 676 516 676 c 256,514,515
 544 676 544 676 563 657 c 0,516,517
 583 637 583 637 583 609 c 256,518,519
 583 581 583 581 564 562 c 0,520,521
 544 542 544 542 516 542 c 1,522,-1
 516 542 l 1,523,-1
 516 542 l 1,506,507
917 544 m 1,524,525
 908 551 908 551 897 551 c 0,526,527
 884 551 884 551 874 542 c 1,528,-1
 874 542 l 1,529,530
 874 541 874 541 872 540 c 2,531,-1
 582 251 l 2,532,533
 554 224 554 224 514 224 c 0,534,535
 475 224 475 224 447 251 c 2,536,-1
 157 540 l 2,537,538
 156 540 156 540 155 541 c 0,539,540
 155 542 155 542 154 542 c 1,541,-1
 154 542 l 1,542,543
 145 551 145 551 132 551 c 0,544,545
 120 551 120 551 111 544 c 0,546,547
 80 526 80 526 61 495 c 256,548,549
 42 464 42 464 42 427 c 2,550,-1
 42 25 l 2,551,552
 42 -30 42 -30 81 -69 c 0,553,554
 121 -109 121 -109 177 -109 c 2,555,-1
 852 -109 l 2,556,557
 908 -109 908 -109 947 -70 c 0,558,559
 987 -30 987 -30 987 25 c 2,560,-1
 987 427 l 2,561,562
 987 464 987 464 968 495 c 256,563,564
 949 526 949 526 917 544 c 1,565,-1
 917 544 l 1,566,-1
 917 544 l 1,524,525
919 52 m 2,567,568
 919 13 919 13 892 -14 c 0,569,570
 864 -42 864 -42 825 -42 c 2,571,-1
 204 -42 l 2,572,573
 165 -42 165 -42 138 -15 c 0,574,575
 110 13 110 13 110 52 c 2,576,-1
 110 400 l 2,577,578
 110 438 110 438 136 465 c 1,579,-1
 418 185 l 2,580,581
 458 146 458 146 514 146 c 256,582,583
 570 146 570 146 610 185 c 2,584,-1
 893 465 l 1,585,586
 919 438 919 438 919 400 c 2,587,-1
 919 52 l 2,567,568
EndSplineSet
Validated: 5
EndChar

StartChar: uniE901
Encoding: 59649 59649 35
Width: 1024
Flags: W
LayerCount: 2
Fore
SplineSet
993 284 m 0,0,1
 993 385 993 385 912 461 c 0,2,3
 837 531 837 531 730 543 c 1,4,5
 705 646 705 646 607 715 c 0,6,7
 507 785 507 785 380 785 c 0,8,9
 285 785 285 785 205 745 c 0,10,11
 124 705 124 705 78 636 c 0,12,13
 31 566 31 566 31 484 c 0,14,15
 31 352 31 352 154 257 c 1,16,-1
 128 181 l 2,17,18
 122 163 122 163 137 150 c 0,19,20
 145 143 145 143 156 143 c 0,21,22
 163 143 163 143 169 146 c 2,23,-1
 272 198 l 1,24,-1
 281 196 l 2,25,26
 343 183 343 183 380 183 c 0,27,28
 396 183 396 183 412 184 c 0,29,30
 413 184 413 184 414 185 c 1,31,32
 449 111 449 111 525 67 c 256,33,34
 601 23 601 23 692 23 c 0,35,36
 727 23 727 23 784 37 c 1,37,-1
 862 -6 l 2,38,39
 869 -9 869 -9 876 -9 c 0,40,41
 886 -9 886 -9 894 -3 c 0,42,43
 909 10 909 10 904 28 c 2,44,-1
 885 89 l 1,45,46
 993 178 993 178 993 284 c 0,0,1
395 241 m 1,47,-1
 380 241 l 2,48,49
 349 241 349 241 292 253 c 2,50,-1
 274 256 l 2,51,52
 264 258 264 258 255 254 c 2,53,-1
 205 229 l 1,54,-1
 215 259 l 2,55,56
 222 279 222 279 204 292 c 0,57,58
 89 373 89 373 89 484 c 0,59,60
 89 585 89 585 174 656 c 0,61,62
 260 728 260 728 380 728 c 0,63,64
 481 728 481 728 562 676 c 0,65,66
 644 624 644 624 669 544 c 1,67,68
 558 537 558 537 479 468 c 0,69,70
 391 392 391 392 391 284 c 0,71,72
 391 263 391 263 395 241 c 1,47,-1
835 123 m 1,73,-1
 835 123 l 1,74,75
 819 111 819 111 824 91 c 2,76,-1
 828 79 l 1,77,-1
 802 93 l 2,78,79
 796 97 796 97 788 97 c 0,80,81
 785 97 785 97 781 96 c 0,82,83
 721 81 721 81 692 81 c 0,84,85
 592 81 592 81 521 140 c 0,86,87
 449 200 449 200 449 284 c 256,88,89
 449 368 449 368 520 427 c 0,90,91
 592 487 592 487 692 487 c 0,92,93
 791 487 791 487 863 427 c 256,94,95
 935 367 935 367 935 284 c 0,96,97
 935 198 935 198 835 123 c 1,73,-1
228 576 m 256,98,99
 228 558 228 558 241 545 c 256,100,101
 254 532 254 532 272 532 c 256,102,103
 290 532 290 532 303 545 c 256,104,105
 316 558 316 558 316 576 c 256,106,107
 316 594 316 594 303 607 c 256,108,109
 290 620 290 620 272 620 c 256,110,111
 254 620 254 620 241 607 c 256,112,113
 228 594 228 594 228 576 c 256,98,99
452 576 m 256,114,115
 452 558 452 558 465 545 c 256,116,117
 478 532 478 532 496 532 c 256,118,119
 514 532 514 532 527 545 c 256,120,121
 540 558 540 558 540 576 c 256,122,123
 540 594 540 594 527 607 c 256,124,125
 514 620 514 620 496 620 c 256,126,127
 478 620 478 620 465 607 c 256,128,129
 452 594 452 594 452 576 c 256,114,115
572 352 m 256,130,131
 572 337 572 337 582 327 c 0,132,133
 593 316 593 316 608 316 c 256,134,135
 623 316 623 316 633 326 c 0,136,137
 644 337 644 337 644 352 c 256,138,139
 644 367 644 367 634 377 c 0,140,141
 623 388 623 388 608 388 c 256,142,143
 593 388 593 388 583 378 c 0,144,145
 572 367 572 367 572 352 c 256,130,131
748 352 m 256,146,147
 748 337 748 337 758 327 c 0,148,149
 769 316 769 316 784 316 c 256,150,151
 799 316 799 316 809 326 c 0,152,153
 820 337 820 337 820 352 c 256,154,155
 820 367 820 367 810 377 c 0,156,157
 799 388 799 388 784 388 c 256,158,159
 769 388 769 388 759 378 c 0,160,161
 748 367 748 367 748 352 c 256,146,147
EndSplineSet
Validated: 41
EndChar

StartChar: uniE903
Encoding: 59651 59651 36
Width: 1024
Flags: W
LayerCount: 2
Fore
SplineSet
511 858 m 0,0,1
 414 858 414 858 326 820 c 0,2,3
 237 782 237 782 173 718 c 0,4,5
 108 654 108 654 70 565 c 256,6,7
 32 476 32 476 32 378 c 0,8,9
 32 214 32 214 132 85 c 0,10,11
 233 -45 233 -45 392 -86 c 1,12,-1
 405 -89 l 2,13,14
 415 -92 415 -92 423 -86 c 256,15,16
 431 -80 431 -80 432 -70 c 2,17,-1
 434 -59 l 2,18,19
 435 -55 435 -55 435 -51 c 2,20,-1
 435 45 l 2,21,22
 435 55 435 55 427 61 c 0,23,24
 425 64 425 64 421 66 c 1,25,26
 433 71 433 71 434 83 c 2,27,-1
 435 90 l 2,28,29
 439 118 439 118 452 128 c 2,30,-1
 471 144 l 2,31,32
 482 154 482 154 479 168 c 0,33,34
 475 182 475 182 460 184 c 2,35,-1
 436 188 l 2,36,37
 404 193 404 193 379 197 c 0,38,39
 357 204 357 204 333 217 c 0,40,41
 310 230 310 230 296 248 c 0,42,43
 281 267 281 267 272 298 c 0,44,45
 261 332 261 332 261 375 c 0,46,47
 261 433 261 433 297 471 c 2,48,-1
 302 476 l 2,49,50
 312 487 312 487 307 500 c 2,51,-1
 304 507 l 2,52,53
 291 539 291 539 301 579 c 1,54,55
 307 577 307 577 313 574 c 0,56,57
 314 574 314 574 315 573 c 2,58,-1
 316 573 l 1,59,60
 345 562 345 562 356 555 c 0,61,62
 359 553 359 553 360 553 c 1,63,-1
 360 553 l 1,64,65
 373 546 373 546 379 541 c 1,66,-1
 380 541 l 1,67,-1
 384 537 l 2,68,69
 393 530 393 530 404 534 c 2,70,-1
 410 535 l 1,71,72
 456 549 456 549 505 549 c 2,73,-1
 518 549 l 2,74,75
 567 549 567 549 614 535 c 1,76,-1
 619 534 l 2,77,78
 629 530 629 530 639 537 c 2,79,-1
 662 554 l 2,80,81
 683 565 683 565 711 577 c 0,82,83
 719 579 719 579 722 580 c 1,84,85
 732 539 732 539 720 508 c 2,86,-1
 717 501 l 2,87,88
 711 488 711 488 721 478 c 2,89,-1
 726 472 l 2,90,91
 763 432 763 432 763 376 c 0,92,93
 763 330 763 330 752 300 c 1,94,-1
 752 297 l 1,95,96
 742 266 742 266 728 250 c 1,97,-1
 727 247 l 1,98,99
 712 229 712 229 692 219 c 2,100,-1
 690 218 l 1,101,-1
 689 218 l 1,102,103
 666 203 666 203 645 199 c 0,104,105
 644 199 644 199 642 198 c 0,106,107
 620 192 620 192 590 189 c 2,108,-1
 564 187 l 2,109,110
 550 186 550 186 545 172 c 256,111,112
 540 158 540 158 551 148 c 2,113,-1
 570 131 l 2,114,115
 589 113 589 113 589 73 c 2,116,-1
 589 -51 l 2,117,118
 589 -55 589 -55 590 -59 c 2,119,-1
 592 -70 l 2,120,121
 593 -80 593 -80 601 -86 c 0,122,123
 607 -90 607 -90 614 -90 c 0,124,125
 617 -90 617 -90 619 -89 c 2,126,-1
 632 -86 l 1,127,128
 791 -45 791 -45 891 84 c 0,129,130
 992 214 992 214 992 378 c 0,131,132
 992 475 992 475 954 564 c 256,133,134
 916 653 916 653 852 717 c 0,135,136
 787 782 787 782 698 820 c 256,137,138
 609 858 609 858 511 858 c 0,0,1
632 139 m 1,139,140
 646 141 646 141 658 144 c 0,141,142
 687 151 687 151 718 170 c 0,143,144
 749 187 749 187 771 214 c 0,145,146
 792 238 792 238 806 282 c 0,147,148
 819 322 819 322 819 376 c 0,149,150
 819 447 819 447 776 500 c 1,151,152
 793 555 793 555 767 622 c 0,153,154
 762 633 762 633 751 636 c 0,155,156
 744 638 744 638 735 638 c 0,157,158
 717 638 717 638 692 630 c 0,159,160
 692 629 692 629 691 629 c 2,161,-1
 690 629 l 1,162,163
 656 614 656 614 635 603 c 0,164,165
 634 602 634 602 632 601 c 2,166,-1
 619 592 l 1,167,168
 569 605 569 605 519 605 c 2,169,-1
 505 605 l 2,170,171
 454 605 454 605 404 592 c 1,172,173
 399 595 399 595 387 602 c 0,174,175
 370 613 370 613 335 626 c 0,176,177
 309 637 309 637 289 637 c 0,178,179
 278 637 278 637 269 634 c 256,180,181
 260 631 260 631 256 621 c 0,182,183
 231 556 231 556 248 499 c 1,184,185
 205 448 205 448 205 375 c 0,186,187
 205 323 205 323 218 281 c 0,188,189
 231 240 231 240 253 213 c 1,190,-1
 253 213 l 1,191,192
 273 188 273 188 306 169 c 1,193,-1
 306 169 l 1,194,195
 335 152 335 152 364 144 c 0,196,197
 366 143 366 143 367 143 c 0,198,199
 372 142 372 142 391 138 c 1,200,201
 386 126 386 126 383 112 c 0,202,203
 381 112 381 112 378 111 c 0,204,205
 374 109 374 109 371 109 c 0,206,207
 358 107 358 107 343 106 c 0,208,209
 330 107 330 107 317 115 c 0,210,211
 303 125 303 125 292 144 c 0,212,213
 279 167 279 167 257 182 c 0,214,215
 236 196 236 196 220 198 c 2,216,-1
 210 201 l 2,217,218
 206 202 206 202 202 202 c 0,219,220
 187 200 187 200 178 197 c 0,221,222
 176 196 176 196 173 194 c 0,223,224
 156 181 156 181 164 162 c 0,225,226
 166 153 166 153 173 147 c 0,227,228
 177 141 177 141 183 137 c 2,229,-1
 185 135 l 2,230,231
 188 132 188 132 193 130 c 0,232,233
 199 127 199 127 208 116 c 1,234,-1
 208 115 l 1,235,-1
 209 115 l 1,236,237
 219 102 219 102 224 90 c 1,238,-1
 224 89 l 1,239,-1
 230 78 l 2,240,241
 235 62 235 62 244 50 c 1,242,243
 207 81 207 81 179 117 c 0,244,245
 135 172 135 172 112 238 c 0,246,247
 88 306 88 306 88 379 c 0,248,249
 88 465 88 465 121 543 c 0,250,251
 154 619 154 619 212 678 c 0,252,253
 271 737 271 737 347 769 c 0,254,255
 426 802 426 802 512 802 c 256,256,257
 598 802 598 802 677 769 c 0,258,259
 753 737 753 737 811 679 c 0,260,261
 870 620 870 620 902 543 c 0,262,263
 936 465 936 465 936 378 c 0,264,265
 936 306 936 306 912 238 c 0,266,267
 889 172 889 172 845 117 c 0,268,269
 803 63 803 63 745 25 c 0,270,271
 698 -6 698 -6 645 -23 c 1,272,-1
 645 74 l 2,273,274
 645 112 645 112 632 139 c 1,139,140
310 12 m 1,275,276
 329 7 329 7 349 7 c 2,277,-1
 365 7 l 2,278,279
 372 7 372 7 379 8 c 1,280,-1
 379 -23 l 1,281,282
 332 -8 332 -8 292 17 c 1,283,284
 300 14 300 14 310 12 c 1,285,-1
 310 12 l 1,275,276
EndSplineSet
Validated: 41
EndChar

StartChar: uniE902
Encoding: 59650 59650 37
Width: 1024
Flags: W
LayerCount: 2
Fore
SplineSet
741 388 m 1,0,-1
 741 393 l 2,1,2
 742 411 742 411 743 432 c 0,3,4
 745 453 745 453 734 479 c 0,5,6
 722 506 722 506 698 524 c 1,7,-1
 694 526 l 2,8,9
 670 539 670 539 639 539 c 0,10,11
 614 539 614 539 564 528 c 0,12,13
 539 522 539 522 527 520 c 1,14,-1
 527 526 l 2,15,16
 525 543 525 543 523 554 c 256,17,18
 521 565 521 565 515 583 c 256,19,20
 509 601 509 601 496 614 c 0,21,22
 482 628 482 628 462 636 c 0,23,24
 430 649 430 649 394 649 c 0,25,26
 344 649 344 649 292 624 c 0,27,28
 182 568 182 568 100 459 c 256,29,30
 18 350 18 350 7 243 c 1,31,-1
 6 239 l 1,32,33
 6 153 6 153 61 82 c 0,34,35
 117 11 117 11 213 -30 c 0,36,37
 309 -72 309 -72 425 -72 c 0,38,39
 598 -72 598 -72 721 11 c 0,40,41
 782 52 782 52 817 108 c 0,42,43
 853 164 853 164 859 228 c 0,44,45
 861 258 861 258 855 283 c 0,46,47
 848 308 848 308 838 323 c 0,48,49
 827 339 827 339 808 352 c 0,50,51
 788 366 788 366 776 372 c 0,52,53
 763 379 763 379 741 388 c 1,0,-1
798 233 m 0,54,55
 789 129 789 129 683 60 c 0,56,57
 576 -10 576 -10 425 -10 c 0,58,59
 327 -10 327 -10 245 22 c 0,60,61
 163 55 163 55 116 112 c 0,62,63
 68 169 68 169 68 238 c 1,64,65
 78 329 78 329 151 425 c 256,66,67
 224 521 224 521 319 569 c 0,68,69
 358 588 358 588 394 588 c 0,70,71
 418 588 418 588 439 580 c 0,72,73
 453 574 453 574 458 561 c 0,74,75
 463 547 463 547 465 520 c 0,76,77
 466 509 466 509 467 501 c 0,78,79
 469 493 469 493 473 482 c 0,80,81
 478 470 478 470 487 464 c 0,82,83
 497 457 497 457 511 457 c 2,84,-1
 514 457 l 2,85,86
 535 458 535 458 578 468 c 0,87,88
 621 477 621 477 639 477 c 0,89,90
 653 477 653 477 663 473 c 0,91,92
 678 461 678 461 681 442 c 0,93,94
 684 422 684 422 680 399 c 0,95,96
 676 386 676 386 680 366 c 0,97,98
 684 345 684 345 702 338 c 0,99,100
 706 336 706 336 715 332 c 0,101,102
 764 312 764 312 782 293 c 0,103,104
 801 274 801 274 798 233 c 0,54,55
747 669 m 0,105,106
 734 669 734 669 725 660 c 256,107,108
 716 651 716 651 716 639 c 0,109,110
 716 626 716 626 725 617 c 256,111,112
 734 608 734 608 747 608 c 0,113,114
 769 608 769 608 785 592 c 256,115,116
 801 576 801 576 801 554 c 0,117,118
 801 542 801 542 810 533 c 256,119,120
 819 524 819 524 832 524 c 256,121,122
 845 524 845 524 854 533 c 256,123,124
 863 542 863 542 863 554 c 0,125,126
 863 602 863 602 829 635 c 0,127,128
 795 669 795 669 747 669 c 0,105,106
737 828 m 0,129,130
 725 828 725 828 716 819 c 256,131,132
 707 810 707 810 707 798 c 0,133,134
 707 785 707 785 716 776 c 256,135,136
 725 767 725 767 737 767 c 0,137,138
 829 767 829 767 894 705 c 0,139,140
 959 642 959 642 959 554 c 0,141,142
 959 541 959 541 968 532 c 256,143,144
 977 523 977 523 989 523 c 0,145,146
 1002 523 1002 523 1011 532 c 256,147,148
 1020 541 1020 541 1020 554 c 0,149,150
 1020 667 1020 667 937 747 c 0,151,152
 854 828 854 828 737 828 c 0,129,130
459 421 m 0,153,154
 419 421 419 421 379 411 c 0,155,156
 277 387 277 387 217 319 c 0,157,158
 152 245 152 245 172 165 c 0,159,160
 186 104 186 104 245 66 c 0,161,162
 305 28 305 28 388 28 c 0,163,164
 428 28 428 28 468 38 c 0,165,166
 569 62 569 62 630 131 c 0,167,168
 694 204 694 204 675 285 c 0,169,170
 660 346 660 346 601 383 c 0,171,172
 541 421 541 421 459 421 c 0,153,154
583 171 m 0,173,174
 536 117 536 117 454 98 c 0,175,176
 420 90 420 90 388 90 c 0,177,178
 327 90 327 90 284 114 c 0,179,180
 241 139 241 139 231 179 c 0,181,182
 220 228 220 228 263 278 c 0,183,184
 311 332 311 332 393 352 c 0,185,186
 426 360 426 360 459 360 c 0,187,188
 519 360 519 360 562 335 c 0,189,190
 606 310 606 310 615 270 c 0,191,192
 627 221 627 221 583 171 c 0,173,174
393 246 m 0,193,194
 378 246 378 246 363 240 c 0,195,196
 339 229 339 229 329 207 c 0,197,198
 317 182 317 182 327 159 c 0,199,200
 342 126 342 126 382 126 c 0,201,202
 397 126 397 126 412 132 c 0,203,204
 436 143 436 143 446 166 c 0,205,206
 458 190 458 190 448 213 c 0,207,208
 433 246 433 246 393 246 c 0,193,194
409 183 m 0,209,210
 405 174 405 174 395 170 c 0,211,212
 389 167 389 167 382 167 c 0,213,214
 369 167 369 167 365 176 c 0,215,216
 362 182 362 182 366 189 c 0,217,218
 370 198 370 198 380 203 c 0,219,220
 386 205 386 205 393 205 c 0,221,222
 406 205 406 205 410 196 c 0,223,224
 413 190 413 190 409 183 c 0,209,210
EndSplineSet
Validated: 41
EndChar

StartChar: uniE943
Encoding: 59715 59715 38
Width: 1024
VWidth: 0
LayerCount: 2
Fore
SplineSet
512 896 m 128,-1,1
 645 896 645 896 738.5 802.5 c 128,-1,2
 832 709 832 709 832 576 c 0,3,4
 832 486 832 486 799 380.5 c 128,-1,5
 766 275 766 275 719 188.5 c 128,-1,6
 672 102 672 102 625 28.5 c 128,-1,7
 578 -45 578 -45 545 -86.5 c 2,8,-1
 512 -128 l 1,9,10
 499 -112 499 -112 477.5 -84.5 c 128,-1,11
 456 -57 456 -57 400.5 26.5 c 128,-1,12
 345 110 345 110 303 191 c 128,-1,13
 261 272 261 272 226.5 379 c 128,-1,14
 192 486 192 486 192 576 c 0,15,16
 192 709 192 709 285.5 802.5 c 128,-1,0
 379 896 379 896 512 896 c 128,-1,1
512 380 m 128,-1,18
 593 380 593 380 650.5 437.5 c 128,-1,19
 708 495 708 495 708 576 c 128,-1,20
 708 657 708 657 650.5 714.5 c 128,-1,21
 593 772 593 772 512 772 c 128,-1,22
 431 772 431 772 373.5 714.5 c 128,-1,23
 316 657 316 657 316 576 c 128,-1,24
 316 495 316 495 373.5 437.5 c 128,-1,17
 431 380 431 380 512 380 c 128,-1,18
388 576 m 128,-1,26
 388 627 388 627 424.5 663.5 c 128,-1,27
 461 700 461 700 512 700 c 128,-1,28
 563 700 563 700 599.5 663.5 c 128,-1,29
 636 627 636 627 636 576 c 128,-1,30
 636 525 636 525 599.5 488.5 c 128,-1,31
 563 452 563 452 512 452 c 128,-1,32
 461 452 461 452 424.5 488.5 c 128,-1,25
 388 525 388 525 388 576 c 128,-1,26
EndSplineSet
EndChar
